<?xml version="1.0" encoding="UTF-8"?> <svg xmlns="http://www.w3.org/2000/svg" xmlns:xlink="http://www.w3.org/1999/xlink" width="441px" height="575px" viewBox="0 0 441 575"><!-- Generator: Sketch 60.1 (88133) - https://sketch.com --><title>460326-PFO45Z-704</title><desc>Created with Sketch.</desc><defs><path d="M403.928571,0.153061224 L18.5204082,0.153061224 C8.7244898,0.153061224 0.765306122,7.19387755 0.765306122,15.9183673 L0.765306122,136.22449 C0.765306122,144.94898 8.7244898,151.989796 18.5204082,151.989796 L314.081633,151.989796 L382.806122,151.989796 L404.081633,151.989796 C413.877551,151.989796 421.836735,144.94898 421.836735,136.22449 L421.836735,15.9183673 C421.683673,7.19387755 413.72449,0.153061224 403.928571,0.153061224 Z" id="path-1"></path><filter x="-4.0%" y="-8.6%" width="108.1%" height="122.4%" id="filter-2"><feOffset dx="0" dy="4" in="SourceAlpha" result="shadowOffsetOuter1"></feOffset><feGaussianBlur stdDeviation="5" in="shadowOffsetOuter1" result="shadowBlurOuter1"></feGaussianBlur><feColorMatrix values="0 0 0 0 0 0 0 0 0 0 0 0 0 0 0 0 0 0 0.0983391608 0" type="matrix" in="shadowBlurOuter1"></feColorMatrix></filter><linearGradient x1="51.050364%" y1="100.087737%" x2="51.050364%" y2="-0.273544919%" id="linearGradient-3"><stop stop-color="#FFB800" offset="0%"></stop><stop stop-color="#FFDF10" offset="100%"></stop></linearGradient><linearGradient x1="50.5679536%" y1="100.087737%" x2="50.5679536%" y2="-0.273544919%" id="linearGradient-4"><stop stop-color="#FFB800" offset="0%"></stop><stop stop-color="#FFDF10" offset="100%"></stop></linearGradient><linearGradient x1="50.7330739%" y1="100.087737%" x2="50.7330739%" y2="-0.273544919%" id="linearGradient-5"><stop stop-color="#FFB800" offset="0%"></stop><stop stop-color="#FFDF10" offset="100%"></stop></linearGradient><linearGradient x1="50.8981943%" y1="100.087737%" x2="50.8981943%" y2="-0.273544919%" id="linearGradient-6"><stop stop-color="#FFB800" offset="0%"></stop><stop stop-color="#FFDF10" offset="100%"></stop></linearGradient><path d="M403.928571,0.224489796 L18.5204082,0.224489796 C8.7244898,0.224489796 0.765306122,7.26530612 0.765306122,15.9897959 L0.765306122,136.295918 C0.765306122,145.020408 8.7244898,152.061224 18.5204082,152.061224 L314.081633,152.061224 L382.806122,152.061224 L404.081633,152.061224 C413.877551,152.061224 421.836735,145.020408 421.836735,136.295918 L421.836735,15.8367347 C421.683673,7.26530612 413.72449,0.224489796 403.928571,0.224489796 Z" id="path-7"></path><filter x="-4.0%" y="-8.6%" width="108.1%" height="122.4%" id="filter-8"><feOffset dx="0" dy="4" in="SourceAlpha" result="shadowOffsetOuter1"></feOffset><feGaussianBlur stdDeviation="5" in="shadowOffsetOuter1" result="shadowBlurOuter1"></feGaussianBlur><feColorMatrix values="0 0 0 0 0 0 0 0 0 0 0 0 0 0 0 0 0 0 0.0983391608 0" type="matrix" in="shadowBlurOuter1"></feColorMatrix></filter><linearGradient x1="51.050364%" y1="100.571276%" x2="51.050364%" y2="0.209994079%" id="linearGradient-9"><stop stop-color="#FFB800" offset="0%"></stop><stop stop-color="#FFDF10" offset="100%"></stop></linearGradient><linearGradient x1="50.5679536%" y1="100.571276%" x2="50.5679536%" y2="0.209994079%" id="linearGradient-10"><stop stop-color="#FFB800" offset="0%"></stop><stop stop-color="#FFDF10" offset="100%"></stop></linearGradient><linearGradient x1="50.7330739%" y1="100.571276%" x2="50.7330739%" y2="0.209994079%" id="linearGradient-11"><stop stop-color="#FFB800" offset="0%"></stop><stop stop-color="#FFDF10" offset="100%"></stop></linearGradient><linearGradient x1="50.8981943%" y1="100.571276%" x2="50.8981943%" y2="0.209994079%" id="linearGradient-12"><stop stop-color="#FFB800" offset="0%"></stop><stop stop-color="#FFDF10" offset="100%"></stop></linearGradient><path d="M403.928571,0.37755102 L18.5204082,0.37755102 C8.7244898,0.37755102 0.765306122,7.41836735 0.765306122,16.1428571 L0.765306122,136.44898 C0.765306122,145.173469 8.7244898,152.214286 18.5204082,152.214286 L314.081633,152.214286 L382.806122,152.214286 L404.081633,152.214286 C413.877551,152.214286 421.836735,145.173469 421.836735,136.44898 L421.836735,16.1428571 C421.683673,7.41836735 413.72449,0.37755102 403.928571,0.37755102 Z" id="path-13"></path><filter x="-4.0%" y="-8.6%" width="108.1%" height="122.4%" id="filter-14"><feOffset dx="0" dy="4" in="SourceAlpha" result="shadowOffsetOuter1"></feOffset><feGaussianBlur stdDeviation="5" in="shadowOffsetOuter1" result="shadowBlurOuter1"></feGaussianBlur><feColorMatrix values="0 0 0 0 0 0 0 0 0 0 0 0 0 0 0 0 0 0 0.0983391608 0" type="matrix" in="shadowBlurOuter1"></feColorMatrix></filter><linearGradient x1="51.050364%" y1="100.324671%" x2="51.050364%" y2="-0.0373015799%" id="linearGradient-15"><stop stop-color="#FFB800" offset="0%"></stop><stop stop-color="#FFDF10" offset="100%"></stop></linearGradient><linearGradient x1="50.5679536%" y1="100.324671%" x2="50.5679536%" y2="-0.0373015799%" id="linearGradient-16"><stop stop-color="#FFB800" offset="0%"></stop><stop stop-color="#FFDF10" offset="100%"></stop></linearGradient><linearGradient x1="50.7330739%" y1="100.324671%" x2="50.7330739%" y2="-0.0373015799%" id="linearGradient-17"><stop stop-color="#FFB800" offset="0%"></stop><stop stop-color="#FFDF10" offset="100%"></stop></linearGradient></defs><g id="Page-1" stroke="none" stroke-width="1" fill="none" fill-rule="evenodd"><g id="Landing-Copy" transform="translate(-135.000000, -930.000000)"><g id="460326-PFO45Z-704" transform="translate(144.000000, 935.000000)"><g id="OBJECTS"><g id="Group"><g transform="translate(0.183673, 0.714286)"><g id="Path" fill-rule="nonzero"><use fill="black" fill-opacity="1" filter="url(#filter-2)" xlink:href="#path-1"></use><use fill="#FBFBFB" xlink:href="#path-1"></use></g><g transform="translate(276.510204, 24.489796)" fill-rule="nonzero"><path d="M94.2040816,101.938776 L7.26530612,101.938776 C3.28571429,101.938776 0.0714285714,98.7244898 0.0714285714,94.744898 L0.0714285714,7.80612245 C0.0714285714,3.82653061 3.28571429,0.612244898 7.26530612,0.612244898 L94.2040816,0.612244898 C98.1836735,0.612244898 101.397959,3.82653061 101.397959,7.80612245 L101.397959,94.744898 C101.397959,98.7244898 98.1836735,101.938776 94.2040816,101.938776 Z" id="Path" fill="#FFFFFF"></path><g transform="translate(12.244898, 6.122449)"><g transform="translate(0.000000, 56.632653)" fill="#F7C128" id="Path"><path d="M76.9081633,46.8367347 C76.9081633,46.8367347 76.9081633,0.765306122 38.4897959,0.765306122 L38.4897959,46.8367347 L76.9081633,46.8367347 Z"></path><path d="M0.0714285714,46.8367347 L38.4897959,46.8367347 L38.4897959,0.765306122 C38.4897959,0.765306122 38.4897959,0.765306122 38.4897959,0.765306122 C0.0714285714,0.765306122 0.0714285714,46.8367347 0.0714285714,46.8367347 Z"></path></g><path d="M10.6326531,54.4897959 L66.0408163,54.4897959 C66.0408163,54.4897959 71.5510204,0 38.3367347,0 C5.73469388,0 10.6326531,54.4897959 10.6326531,54.4897959 Z" id="Path" fill="#7D6255"></path><path d="M56.0918367,22.9591837 L21.0408163,22.9591837 C21.0408163,22.9591837 19.2040816,49.4387755 34.6632653,53.4183673 L34.6632653,58.0102041 L34.6632653,58.0102041 C34.8163265,60.3061224 36.6530612,61.9897959 38.9489796,61.9897959 C41.244898,61.9897959 43.0816327,60.3061224 43.2346939,58.0102041 L43.2346939,58.0102041 L43.2346939,53.2653061 C57.9285714,48.8265306 56.0918367,22.9591837 56.0918367,22.9591837 Z" id="Path" fill="#EFCEB9"></path><ellipse id="Oval" fill="#47331C" cx="31.4489796" cy="31.0714286" rx="1.07142857" ry="1.37755102"></ellipse><ellipse id="Oval" fill="#47331C" cx="45.8367347" cy="31.0714286" rx="1.07142857" ry="1.37755102"></ellipse></g></g><g transform="translate(36.734694, 25.489796)"><g transform="translate(0.000000, 27.551020)" fill-rule="nonzero" id="Path"><path d="M12.7040816,0.37755102 L15.9183673,6.95918367 C15.9183673,7.1122449 16.0714286,7.1122449 16.2244898,7.1122449 L23.5714286,8.18367347 C23.877551,8.18367347 24.0306122,8.64285714 23.877551,8.94897959 L18.5204082,14.1530612 C18.3673469,14.3061224 18.3673469,14.4591837 18.3673469,14.4591837 L19.5918367,21.8061224 C19.5918367,22.1122449 19.2857143,22.4183673 18.9795918,22.2653061 L12.3979592,18.744898 C12.244898,18.744898 12.0918367,18.744898 11.9387755,18.744898 L5.35714286,22.2653061 C5.05102041,22.4183673 4.74489796,22.1122449 4.74489796,21.8061224 L5.96938776,14.4591837 C5.96938776,14.3061224 5.96938776,14.1530612 5.81632653,14.1530612 L0.459183673,8.94897959 C0.153061224,8.64285714 0.306122449,8.33673469 0.765306122,8.18367347 L8.1122449,7.1122449 C8.26530612,7.1122449 8.41836735,6.95918367 8.41836735,6.95918367 L11.6326531,0.37755102 C12.0918367,0.0714285714 12.5510204,0.0714285714 12.7040816,0.37755102 Z" fill="url(#linearGradient-3)"></path><path d="M43.0102041,0.37755102 L46.2244898,6.95918367 C46.2244898,7.1122449 46.377551,7.1122449 46.5306122,7.1122449 L53.877551,8.18367347 C54.1836735,8.18367347 54.3367347,8.64285714 54.1836735,8.94897959 L48.8265306,14.1530612 C48.6734694,14.3061224 48.6734694,14.4591837 48.6734694,14.4591837 L49.8979592,21.8061224 C49.8979592,22.1122449 49.5918367,22.4183673 49.2857143,22.2653061 L42.7040816,18.744898 C42.5510204,18.744898 42.3979592,18.744898 42.244898,18.744898 L35.6632653,22.2653061 C35.3571429,22.4183673 35.0510204,22.1122449 35.0510204,21.8061224 L36.2755102,14.4591837 C36.2755102,14.3061224 36.2755102,14.1530612 36.122449,14.1530612 L30.7653061,8.94897959 C30.4591837,8.64285714 30.6122449,8.33673469 31.0714286,8.18367347 L38.4183673,7.1122449 C38.5714286,7.1122449 38.7244898,6.95918367 38.7244898,6.95918367 L41.9387755,0.37755102 C42.3979592,0.0714285714 42.8571429,0.0714285714 43.0102041,0.37755102 Z" fill="url(#linearGradient-4)"></path><path d="M73.1632653,0.37755102 L76.377551,6.95918367 C76.377551,7.1122449 76.5306122,7.1122449 76.6836735,7.1122449 L84.0306122,8.18367347 C84.3367347,8.18367347 84.4897959,8.64285714 84.3367347,8.94897959 L78.9795918,14.1530612 C78.8265306,14.3061224 78.8265306,14.4591837 78.8265306,14.4591837 L80.0510204,21.8061224 C80.0510204,22.1122449 79.744898,22.4183673 79.4387755,22.2653061 L72.8571429,18.744898 C72.7040816,18.744898 72.5510204,18.744898 72.3979592,18.744898 L65.8163265,22.2653061 C65.5102041,22.4183673 65.2040816,22.1122449 65.2040816,21.8061224 L66.4285714,14.4591837 C66.4285714,14.3061224 66.4285714,14.1530612 66.2755102,14.1530612 L60.9183673,8.94897959 C60.6122449,8.64285714 60.7653061,8.33673469 61.2244898,8.18367347 L68.5714286,7.1122449 C68.7244898,7.1122449 68.877551,6.95918367 68.877551,6.95918367 L72.0918367,0.37755102 C72.5510204,0.0714285714 73.0102041,0.0714285714 73.1632653,0.37755102 Z" fill="url(#linearGradient-5)"></path><path d="M103.316327,0.37755102 L106.530612,6.95918367 C106.530612,7.1122449 106.683673,7.1122449 106.836735,7.1122449 L114.183673,8.18367347 C114.489796,8.18367347 114.642857,8.64285714 114.489796,8.94897959 L109.132653,14.1530612 C108.979592,14.3061224 108.979592,14.4591837 108.979592,14.4591837 L110.204082,21.8061224 C110.204082,22.1122449 109.897959,22.4183673 109.591837,22.2653061 L103.010204,18.744898 C102.857143,18.744898 102.704082,18.744898 102.55102,18.744898 L95.9693878,22.2653061 C95.6632653,22.4183673 95.3571429,22.1122449 95.3571429,21.8061224 L96.5816327,14.4591837 C96.5816327,14.3061224 96.5816327,14.1530612 96.4285714,14.1530612 L91.0714286,8.94897959 C90.7653061,8.64285714 90.9183673,8.33673469 91.377551,8.18367347 L98.7244898,7.1122449 C98.877551,7.1122449 99.0306122,6.95918367 99.0306122,6.95918367 L102.244898,0.37755102 C102.704082,0.0714285714 103.163265,0.0714285714 103.316327,0.37755102 Z" fill="url(#linearGradient-6)"></path><g transform="translate(120.918367, 0.000000)" fill="url(#linearGradient-6)"><path d="M12.5510204,0.37755102 L15.7653061,6.95918367 C15.7653061,7.1122449 15.9183673,7.1122449 16.0714286,7.1122449 L23.4183673,8.18367347 C23.7244898,8.18367347 23.877551,8.64285714 23.7244898,8.94897959 L18.3673469,14.1530612 C18.2142857,14.3061224 18.2142857,14.4591837 18.2142857,14.4591837 L19.4387755,21.8061224 C19.4387755,22.1122449 19.1326531,22.4183673 18.8265306,22.2653061 L12.244898,18.744898 C12.0918367,18.744898 11.9387755,18.744898 11.7857143,18.744898 L5.20408163,22.2653061 C4.89795918,22.4183673 4.59183673,22.1122449 4.59183673,21.8061224 L5.81632653,14.4591837 C5.81632653,14.3061224 5.81632653,14.1530612 5.66326531,14.1530612 L0.306122449,8.94897959 C-8.0574436e-14,8.64285714 0.153061224,8.33673469 0.612244898,8.18367347 L7.95918367,7.1122449 C8.1122449,7.1122449 8.26530612,6.95918367 8.26530612,6.95918367 L11.4795918,0.37755102 C11.9387755,0.0714285714 12.3979592,0.0714285714 12.5510204,0.37755102 Z"></path></g></g><rect id="Rectangle" fill="#2D2D2D" opacity="0.208449591" x="0" y="0" width="165" height="20"></rect><rect id="Rectangle-Copy" fill="#2D2D2D" opacity="0.14845" x="0" y="61" width="200" height="10"></rect><rect id="Rectangle-Copy-2" fill="#2D2D2D" opacity="0.14845" x="0" y="81" width="150" height="10"></rect><rect id="Rectangle-Copy-3" fill="#2D2D2D" opacity="0.14845" x="0" y="101" width="150" height="10"></rect></g></g></g><g id="Group" transform="translate(0.000000, 201.510204)"><g><g transform="translate(0.183673, 0.714286)"><g id="Path" fill-rule="nonzero"><use fill="black" fill-opacity="1" filter="url(#filter-8)" xlink:href="#path-7"></use><use fill="#FBFBFB" xlink:href="#path-7"></use></g><g transform="translate(36.734694, 23.020408)"><g transform="translate(0.000000, 29.551020)" fill-rule="nonzero" id="Path"><path d="M12.7040816,0.765306122 L15.9183673,7.34693878 C15.9183673,7.5 16.0714286,7.5 16.2244898,7.5 L23.5714286,8.57142857 C23.877551,8.57142857 24.0306122,9.03061224 23.877551,9.33673469 L18.5204082,14.5408163 C18.3673469,14.6938776 18.3673469,14.8469388 18.3673469,14.8469388 L19.5918367,22.1938776 C19.5918367,22.5 19.2857143,22.8061224 18.9795918,22.6530612 L12.3979592,19.1326531 C12.244898,19.1326531 12.0918367,19.1326531 11.9387755,19.1326531 L5.35714286,22.6530612 C5.05102041,22.8061224 4.74489796,22.5 4.74489796,22.1938776 L5.96938776,14.8469388 C5.96938776,14.6938776 5.96938776,14.5408163 5.81632653,14.5408163 L0.459183673,9.33673469 C0.153061224,9.03061224 0.306122449,8.7244898 0.765306122,8.57142857 L8.1122449,7.5 C8.26530612,7.5 8.41836735,7.34693878 8.41836735,7.34693878 L11.6326531,0.765306122 C12.0918367,0.459183673 12.5510204,0.459183673 12.7040816,0.765306122 Z" fill="url(#linearGradient-9)"></path><path d="M43.0102041,0.765306122 L46.2244898,7.34693878 C46.2244898,7.5 46.377551,7.5 46.5306122,7.5 L53.877551,8.57142857 C54.1836735,8.57142857 54.3367347,9.03061224 54.1836735,9.33673469 L48.8265306,14.5408163 C48.6734694,14.6938776 48.6734694,14.8469388 48.6734694,14.8469388 L49.8979592,22.1938776 C49.8979592,22.5 49.5918367,22.8061224 49.2857143,22.6530612 L42.7040816,19.1326531 C42.5510204,19.1326531 42.3979592,19.1326531 42.244898,19.1326531 L35.6632653,22.6530612 C35.3571429,22.8061224 35.0510204,22.5 35.0510204,22.1938776 L36.2755102,14.8469388 C36.2755102,14.6938776 36.2755102,14.5408163 36.122449,14.5408163 L30.7653061,9.33673469 C30.4591837,9.03061224 30.6122449,8.7244898 31.0714286,8.57142857 L38.4183673,7.5 C38.5714286,7.5 38.7244898,7.34693878 38.7244898,7.34693878 L41.9387755,0.765306122 C42.3979592,0.459183673 42.8571429,0.459183673 43.0102041,0.765306122 Z" fill="url(#linearGradient-10)"></path><path d="M73.1632653,0.765306122 L76.377551,7.34693878 C76.377551,7.5 76.5306122,7.5 76.6836735,7.5 L84.0306122,8.57142857 C84.3367347,8.57142857 84.4897959,9.03061224 84.3367347,9.33673469 L78.9795918,14.5408163 C78.8265306,14.6938776 78.8265306,14.8469388 78.8265306,14.8469388 L80.0510204,22.1938776 C80.0510204,22.5 79.744898,22.8061224 79.4387755,22.6530612 L72.8571429,19.1326531 C72.7040816,19.1326531 72.5510204,19.1326531 72.3979592,19.1326531 L65.8163265,22.6530612 C65.5102041,22.8061224 65.2040816,22.5 65.2040816,22.1938776 L66.4285714,14.8469388 C66.4285714,14.6938776 66.4285714,14.5408163 66.2755102,14.5408163 L60.9183673,9.33673469 C60.6122449,9.03061224 60.7653061,8.7244898 61.2244898,8.57142857 L68.5714286,7.5 C68.7244898,7.5 68.877551,7.34693878 68.877551,7.34693878 L72.0918367,0.765306122 C72.5510204,0.459183673 73.0102041,0.459183673 73.1632653,0.765306122 Z" fill="url(#linearGradient-11)"></path><path d="M103.316327,0.765306122 L106.530612,7.34693878 C106.530612,7.5 106.683673,7.5 106.836735,7.5 L114.183673,8.57142857 C114.489796,8.57142857 114.642857,9.03061224 114.489796,9.33673469 L109.132653,14.5408163 C108.979592,14.6938776 108.979592,14.8469388 108.979592,14.8469388 L110.204082,22.1938776 C110.204082,22.5 109.897959,22.8061224 109.591837,22.6530612 L103.010204,19.1326531 C102.857143,19.1326531 102.704082,19.1326531 102.55102,19.1326531 L95.9693878,22.6530612 C95.6632653,22.8061224 95.3571429,22.5 95.3571429,22.1938776 L96.5816327,14.8469388 C96.5816327,14.6938776 96.5816327,14.5408163 96.4285714,14.5408163 L91.0714286,9.33673469 C90.7653061,9.03061224 90.9183673,8.7244898 91.377551,8.57142857 L98.7244898,7.5 C98.877551,7.5 99.0306122,7.34693878 99.0306122,7.34693878 L102.244898,0.765306122 C102.704082,0.459183673 103.163265,0.459183673 103.316327,0.765306122 Z" fill="url(#linearGradient-12)"></path><path d="M133.469388,0.765306122 L136.683673,7.34693878 C136.683673,7.5 136.836735,7.5 136.989796,7.5 L144.336735,8.57142857 C144.642857,8.57142857 144.795918,9.03061224 144.642857,9.33673469 L139.285714,14.5408163 C139.132653,14.6938776 139.132653,14.8469388 139.132653,14.8469388 L140.357143,22.1938776 C140.357143,22.5 140.05102,22.8061224 139.744898,22.6530612 L133.163265,19.1326531 C133.010204,19.1326531 132.857143,19.1326531 132.704082,19.1326531 L126.122449,22.6530612 C125.816327,22.8061224 125.510204,22.5 125.510204,22.1938776 L126.734694,14.8469388 C126.734694,14.6938776 126.734694,14.5408163 126.581633,14.5408163 L121.22449,9.33673469 C120.918367,9.03061224 121.071429,8.7244898 121.530612,8.57142857 L128.877551,7.5 C129.030612,7.5 129.183673,7.34693878 129.183673,7.34693878 L132.397959,0.765306122 C132.857143,0.459183673 133.316327,0.459183673 133.469388,0.765306122 Z" fill="#9F9F9F"></path></g><rect id="Rectangle" fill="#2D2D2D" opacity="0.208449591" x="1.08163265" y="0.755102041" width="165" height="20"></rect></g><rect id="Rectangle-Copy" fill="#2D2D2D" opacity="0.14845" x="36.8163265" y="86.7755102" width="200" height="10"></rect><rect id="Rectangle-Copy-2" fill="#2D2D2D" opacity="0.14845" x="36.8163265" y="106.77551" width="150" height="10"></rect><rect id="Rectangle-Copy-3" fill="#2D2D2D" opacity="0.14845" x="36.8163265" y="126.77551" width="150" height="10"></rect></g></g><g transform="translate(276.693878, 23.673469)" fill-rule="nonzero"><path d="M94.2040816,101.785714 L7.26530612,101.785714 C3.28571429,101.785714 0.0714285714,98.5714286 0.0714285714,94.5918367 L0.0714285714,7.65306122 C0.0714285714,3.67346939 3.28571429,0.459183673 7.26530612,0.459183673 L94.2040816,0.459183673 C98.1836735,0.459183673 101.397959,3.67346939 101.397959,7.65306122 L101.397959,94.5918367 C101.397959,98.5714286 98.1836735,101.785714 94.2040816,101.785714 Z" id="Path" fill="#FFFFFF"></path><g transform="translate(11.244898, 4.591837)"><g transform="translate(0.000000, 55.102041)" fill="#006992" id="Path"><path d="M78.5204082,47.4489796 C78.5204082,47.4489796 78.5204082,0.765306122 39.6428571,0.765306122 L39.6428571,47.4489796 L78.5204082,47.4489796 Z"></path><path d="M0.612244898,47.4489796 L39.4897959,47.4489796 L39.4897959,0.765306122 C39.4897959,0.765306122 39.4897959,0.765306122 39.4897959,0.765306122 C0.612244898,0.765306122 0.612244898,47.4489796 0.612244898,47.4489796 Z"></path></g><path d="M57.244898,13.7755102 C50.2040816,7.80612245 38.877551,0.459183673 30.4591837,0.153061224 C10.7142857,-0.612244898 10.1020408,15.4591837 17.9081633,19.8979592 C17.755102,20.0510204 17.4489796,20.3571429 17.2959184,20.5102041 C14.0816327,26.0204082 20.5102041,36.8877551 20.5102041,36.8877551 L22.6530612,36.2755102 C22.6530612,36.2755102 20.9693878,27.8571429 21.4285714,24.4897959 C21.5816327,22.8061224 22.6530612,21.7346939 23.7244898,21.122449 C31.8367347,21.5816327 41.9387755,21.2755102 51.7346939,24.4897959 C53.7244898,25.1020408 55.4081633,25.4081633 56.7857143,25.4081633 C56.7857143,25.4081633 56.7857143,25.4081633 56.7857143,25.4081633 C57.3979592,27.244898 55.8673469,36.8877551 55.8673469,36.8877551 L58.1632653,36.8877551 C58.1632653,36.8877551 62.9081633,26.6326531 60.4591837,23.877551 C62.6020408,21.7346939 61.377551,17.2959184 57.244898,13.7755102 Z" id="Path" fill="#7D6255"></path><path d="M58.4693878,33.0612245 C57.8571429,32.755102 57.244898,32.9081633 56.7857143,33.2142857 C57.7040816,26.4795918 57.3979592,20.8163265 57.3979592,20.8163265 L21.8877551,20.8163265 C21.8877551,20.8163265 21.5816327,26.7857143 22.5,33.6734694 C21.8877551,33.0612245 21.122449,32.6020408 20.0510204,33.2142857 C18.2142857,34.2857143 20.6632653,40.5612245 23.7244898,39.6428571 C25.5612245,46.0714286 28.9285714,52.0408163 35.0510204,54.0306122 L35.0510204,57.5510204 C35.0510204,60 37.0408163,61.9897959 39.4897959,61.9897959 C41.9387755,61.9897959 43.9285714,60 43.9285714,57.5510204 L43.9285714,54.1836735 C50.3571429,52.3469388 53.7244898,46.2244898 55.5612245,39.7959184 L55.5612245,39.7959184 C58.622449,40.5612245 60.3061224,33.9795918 58.4693878,33.0612245 Z" id="Path" fill="#EFCEB9"></path><ellipse id="Oval" fill="#47331C" cx="32.9081633" cy="30.7653061" rx="1.2244898" ry="1.37755102"></ellipse><ellipse id="Oval" fill="#47331C" cx="47.4489796" cy="30.7653061" rx="1.2244898" ry="1.37755102"></ellipse></g></g></g><g id="Group" transform="translate(0.000000, 403.551020)"><g><g transform="translate(0.183673, 0.714286)"><g id="Path" fill-rule="nonzero"><use fill="black" fill-opacity="1" filter="url(#filter-14)" xlink:href="#path-13"></use><use fill="#FBFBFB" xlink:href="#path-13"></use></g><g transform="translate(36.734694, 26.020408)"><g transform="translate(0.000000, 26.551020)" fill-rule="nonzero" id="Path"><path d="M12.7040816,1.07142857 L15.9183673,7.65306122 C15.9183673,7.80612245 16.0714286,7.80612245 16.2244898,7.80612245 L23.5714286,8.87755102 C23.877551,8.87755102 24.0306122,9.33673469 23.877551,9.64285714 L18.5204082,14.8469388 C18.3673469,15 18.3673469,15.1530612 18.3673469,15.1530612 L19.5918367,22.5 C19.5918367,22.8061224 19.2857143,23.1122449 18.9795918,22.9591837 L12.3979592,19.4387755 C12.244898,19.4387755 12.0918367,19.4387755 11.9387755,19.4387755 L5.35714286,22.9591837 C5.05102041,23.1122449 4.74489796,22.8061224 4.74489796,22.5 L5.96938776,15.1530612 C5.96938776,15 5.96938776,14.8469388 5.81632653,14.8469388 L0.459183673,9.64285714 C0.153061224,9.33673469 0.306122449,9.03061224 0.765306122,8.87755102 L8.1122449,7.80612245 C8.26530612,7.80612245 8.41836735,7.65306122 8.41836735,7.65306122 L11.6326531,1.07142857 C12.0918367,0.765306122 12.5510204,0.765306122 12.7040816,1.07142857 Z" fill="url(#linearGradient-15)"></path><path d="M43.0102041,1.07142857 L46.2244898,7.65306122 C46.2244898,7.80612245 46.377551,7.80612245 46.5306122,7.80612245 L53.877551,8.87755102 C54.1836735,8.87755102 54.3367347,9.33673469 54.1836735,9.64285714 L48.8265306,14.8469388 C48.6734694,15 48.6734694,15.1530612 48.6734694,15.1530612 L49.8979592,22.5 C49.8979592,22.8061224 49.5918367,23.1122449 49.2857143,22.9591837 L42.7040816,19.4387755 C42.5510204,19.4387755 42.3979592,19.4387755 42.244898,19.4387755 L35.6632653,22.9591837 C35.3571429,23.1122449 35.0510204,22.8061224 35.0510204,22.5 L36.2755102,15.1530612 C36.2755102,15 36.2755102,14.8469388 36.122449,14.8469388 L30.7653061,9.64285714 C30.4591837,9.33673469 30.6122449,9.03061224 31.0714286,8.87755102 L38.4183673,7.80612245 C38.5714286,7.80612245 38.7244898,7.65306122 38.7244898,7.65306122 L41.9387755,1.07142857 C42.3979592,0.765306122 42.8571429,0.765306122 43.0102041,1.07142857 Z" fill="url(#linearGradient-16)"></path><path d="M73.1632653,1.07142857 L76.377551,7.65306122 C76.377551,7.80612245 76.5306122,7.80612245 76.6836735,7.80612245 L84.0306122,8.87755102 C84.3367347,8.87755102 84.4897959,9.33673469 84.3367347,9.64285714 L78.9795918,14.8469388 C78.8265306,15 78.8265306,15.1530612 78.8265306,15.1530612 L80.0510204,22.5 C80.0510204,22.8061224 79.744898,23.1122449 79.4387755,22.9591837 L72.8571429,19.4387755 C72.7040816,19.4387755 72.5510204,19.4387755 72.3979592,19.4387755 L65.8163265,22.9591837 C65.5102041,23.1122449 65.2040816,22.8061224 65.2040816,22.5 L66.4285714,15.1530612 C66.4285714,15 66.4285714,14.8469388 66.2755102,14.8469388 L60.9183673,9.64285714 C60.6122449,9.33673469 60.7653061,9.03061224 61.2244898,8.87755102 L68.5714286,7.80612245 C68.7244898,7.80612245 68.877551,7.65306122 68.877551,7.65306122 L72.0918367,1.07142857 C72.5510204,0.765306122 73.0102041,0.765306122 73.1632653,1.07142857 Z" fill="url(#linearGradient-17)"></path><path d="M103.316327,1.07142857 L106.530612,7.65306122 C106.530612,7.80612245 106.683673,7.80612245 106.836735,7.80612245 L114.183673,8.87755102 C114.489796,8.87755102 114.642857,9.33673469 114.489796,9.64285714 L109.132653,14.8469388 C108.979592,15 108.979592,15.1530612 108.979592,15.1530612 L110.204082,22.5 C110.204082,22.8061224 109.897959,23.1122449 109.591837,22.9591837 L103.010204,19.4387755 C102.857143,19.4387755 102.704082,19.4387755 102.55102,19.4387755 L95.9693878,22.9591837 C95.6632653,23.1122449 95.3571429,22.8061224 95.3571429,22.5 L96.5816327,15.1530612 C96.5816327,15 96.5816327,14.8469388 96.4285714,14.8469388 L91.0714286,9.64285714 C90.7653061,9.33673469 90.9183673,9.03061224 91.377551,8.87755102 L98.7244898,7.80612245 C98.877551,7.80612245 99.0306122,7.65306122 99.0306122,7.65306122 L102.244898,1.07142857 C102.704082,0.765306122 103.163265,0.765306122 103.316327,1.07142857 Z" fill="#9F9F9F"></path><path d="M133.469388,1.07142857 L136.683673,7.65306122 C136.683673,7.80612245 136.836735,7.80612245 136.989796,7.80612245 L144.336735,8.87755102 C144.642857,8.87755102 144.795918,9.33673469 144.642857,9.64285714 L139.285714,14.8469388 C139.132653,15 139.132653,15.1530612 139.132653,15.1530612 L140.357143,22.5 C140.357143,22.8061224 140.05102,23.1122449 139.744898,22.9591837 L133.163265,19.4387755 C133.010204,19.4387755 132.857143,19.4387755 132.704082,19.4387755 L126.122449,22.9591837 C125.816327,23.1122449 125.510204,22.8061224 125.510204,22.5 L126.734694,15.1530612 C126.734694,15 126.734694,14.8469388 126.581633,14.8469388 L121.22449,9.64285714 C120.918367,9.33673469 121.071429,9.03061224 121.530612,8.87755102 L128.877551,7.80612245 C129.030612,7.80612245 129.183673,7.65306122 129.183673,7.65306122 L132.397959,1.07142857 C132.857143,0.765306122 133.316327,0.765306122 133.469388,1.07142857 Z" fill="#9F9F9F"></path></g><rect id="Rectangle" fill="#2D2D2D" opacity="0.208449591" x="1.08163265" y="0.714285714" width="165" height="20"></rect><rect id="Rectangle-Copy" fill="#2D2D2D" opacity="0.14845" x="0.0816326531" y="59.7142857" width="200" height="10"></rect><rect id="Rectangle-Copy-2" fill="#2D2D2D" opacity="0.14845" x="0.0816326531" y="79.7142857" width="150" height="10"></rect><rect id="Rectangle-Copy-3" fill="#2D2D2D" opacity="0.14845" x="0.0816326531" y="99.7142857" width="150" height="10"></rect></g></g></g><g transform="translate(276.693878, 25.204082)" fill-rule="nonzero"><path d="M94.2040816,101.326531 L7.26530612,101.326531 C3.28571429,101.326531 0.0714285714,98.1122449 0.0714285714,94.1326531 L0.0714285714,7.19387755 C0.0714285714,3.21428571 3.28571429,0 7.26530612,0 L94.2040816,0 C98.1836735,0 101.397959,3.21428571 101.397959,7.19387755 L101.397959,94.1326531 C101.397959,98.1122449 98.1836735,101.326531 94.2040816,101.326531 Z" id="Path" fill="#FFFFFF"></path><g transform="translate(10.714286, 4.591837)"><g transform="translate(0.000000, 55.102041)" fill="#F7F4E3" id="Path"><path d="M79.8163265,48.2142857 C79.8163265,48.2142857 79.8163265,0.612244898 40.0204082,0.612244898 L40.0204082,48.2142857 L79.8163265,48.2142857 Z"></path><path d="M0.37755102,48.2142857 L40.1734694,48.2142857 L40.1734694,0.612244898 C40.1734694,0.612244898 40.1734694,0.612244898 40.1734694,0.612244898 C0.37755102,0.612244898 0.37755102,48.2142857 0.37755102,48.2142857 Z"></path></g><path d="M62.2142857,17.1428571 C61.9081633,16.5306122 61.2959184,16.0714286 60.6836735,15.9183673 C60.6836735,15.9183673 60.6836735,15.9183673 60.6836735,15.9183673 C60.6836735,15.9183673 61.2959184,0.612244898 40.1734694,0.612244898 C19.0510204,0.612244898 20.4285714,15.9183673 20.4285714,15.9183673 C20.4285714,15.9183673 20.4285714,15.9183673 20.4285714,15.9183673 C19.3571429,16.0714286 18.2857143,16.5306122 17.6734694,17.4489796 C14.3061224,22.9591837 21.0408163,34.1326531 21.0408163,34.1326531 L23.3367347,33.5204082 C23.3367347,33.5204082 21.6530612,24.9489796 22.1122449,21.4285714 C22.4183673,19.744898 23.4897959,18.6734694 24.5612245,17.9081633 C37.7244898,24.0306122 49.9693878,20.6632653 56.244898,18.0612245 C57.1632653,18.6734694 57.9285714,19.744898 58.0816327,21.122449 C58.5408163,24.6428571 56.8571429,33.2142857 56.8571429,33.2142857 L59.1530612,33.8265306 C58.8469388,33.9795918 65.4285714,22.8061224 62.2142857,17.1428571 Z" id="Path" fill="#7F7253"></path><path d="M59.3061224,30 C58.5408163,29.6938776 58.0816327,29.8469388 57.622449,30.1530612 C58.5408163,23.2653061 58.2346939,17.4489796 58.2346939,17.4489796 L21.9591837,17.4489796 C21.9591837,17.4489796 21.6530612,23.5714286 22.5714286,30.6122449 C21.9591837,30 21.1938776,29.5408163 20.122449,30.1530612 C18.2857143,31.2244898 20.7346939,37.6530612 23.7959184,36.5816327 C25.6326531,43.3163265 29.1530612,49.5918367 35.8877551,51.4285714 L35.8877551,55.8673469 L35.8877551,55.8673469 C36.0408163,58.1632653 38.0306122,59.8469388 40.3265306,59.8469388 C42.622449,59.8469388 44.4591837,58.0102041 44.7653061,55.8673469 L44.7653061,55.8673469 L44.7653061,51.2755102 C51.0408163,49.2857143 54.255102,43.1632653 56.0918367,36.7346939 L56.0918367,36.7346939 C59.6122449,37.8061224 61.2959184,30.9183673 59.3061224,30 Z" id="Path" fill="#EFCEB9"></path><ellipse id="Oval" fill="#47331C" cx="32.9795918" cy="29.8469388" rx="1.2244898" ry="1.53061224"></ellipse><ellipse id="Oval" fill="#47331C" cx="47.8265306" cy="29.8469388" rx="1.2244898" ry="1.53061224"></ellipse></g></g></g></g></g></g></g></svg> 