<?xml version="1.0" encoding="UTF-8"?> <svg xmlns="http://www.w3.org/2000/svg" xmlns:xlink="http://www.w3.org/1999/xlink" width="684px" height="499px" viewBox="0 0 684 499"><!-- Generator: Sketch 59.1 (86144) - https://sketch.com --><title>2456036</title><desc>Created with Sketch.</desc><g id="Page-1" stroke="none" stroke-width="1" fill="none" fill-rule="evenodd"><g id="Landing---dev-only" transform="translate(-755.000000, -167.000000)" fill-rule="nonzero"><g id="Intro" transform="translate(135.000000, 144.000000)"><g id="2456036" transform="translate(620.000000, 23.000000)"><g id="OBJECTS"><path d="M683.8,480.446154 C683.8,470.723077 536.938462,462.830769 355.8,462.830769 C174.661538,462.830769 27.8,470.723077 27.8,480.446154 C27.8,490.169231 174.646154,498.076923 355.8,498.076923 C536.953846,498.076923 683.8,490.184615 683.8,480.446154 Z" id="Path" fill="#E6F8FF"></path><path d="M68.5846154,472.076923 C30.3692308,471.892308 -0.646153846,440.461538 0.384615385,402.261538 C0.938461538,381.476923 8.70769231,361.338462 32.3076923,350.353846 C94.4923077,321.430769 7.69230769,133.430769 117.630769,114.630769 C227.569231,95.8307692 223.215385,-47.3538462 351.923077,59.6769231 C480.630769,166.707692 503.769231,22.0769231 587.646154,97.2769231 C671.523077,172.476923 532.692308,267.923077 636.876923,317.092308 C705.538462,349.523077 683.030769,407.723077 659.723077,443.615385 C647.022821,463.066063 625.306225,474.727069 602.076923,474.570813 L68.5846154,472.076923 Z" id="Path" fill="#CAEDFF"></path><path d="M602.076923,474.570423 C625.284436,474.706094 646.973135,463.047621 659.661538,443.615385 C682.969231,407.723077 705.476923,349.523077 636.815385,317.092308 C532.692308,267.861538 671.523077,172.476923 587.584615,97.2769231 C503.646154,22.0769231 480.630769,166.692308 351.923077,59.6769231 C320.246154,33.3384615 296.646154,22.1692308 277.461538,20.5384615 C284.546996,25.420592 290.700593,31.5325049 295.630769,38.5846154 C342.4,104.061538 370.461538,151.861538 468.138462,143.538462 C565.815385,135.215385 424.492308,305.646154 501.384615,325.4 C552.153846,338.430769 545.384615,416.769231 508.553846,474.138462 L602.076923,474.570423 Z" id="Path" fill="#BAE6F7" opacity="0.44" style="mix-blend-mode: multiply;"></path><path d="M262.323077,143.338462 C254.627592,142.509151 247.118818,140.430598 240.092308,137.184615 C229.523077,132.292308 220.092308,122.892308 225.4,113.615385 C233.323077,100.907692 210.784615,90.1538462 218.446154,83.0769231 C226.246154,76.8153846 227.892308,82 224.876923,67.9846154 C222.4,53.6769231 232.246154,50.2461538 237.784615,37.4461538 C244.123077,24.5692308 258.661538,34.2 255.061538,51 C252.230769,68.3384615 258.923077,50.4307692 263.846154,58.2461538 C268.046154,64.7076923 251.538462,92.5230769 258.830769,90.0153846 C265.584615,86.9384615 271.4,91.2 270.507692,98.9692308 C267.876923,116.938462 262.076923,142.984615 262.323077,143.338462 Z" id="Path" fill="#7BC7FF"></path><path d="M267.707692,150.661538 C267.63113,150.659748 267.558727,150.626331 267.507692,150.569231 C256.127355,137.216241 247.767289,121.561454 243,104.676923 L243,104.523077 L242.876923,104.523077 C238.092467,101.443188 233.718948,97.7675715 229.861538,93.5846154 C228.553846,92.2307692 227.246154,90.8461538 225.938462,89.4461538 C225.889608,89.3769875 225.889608,89.284551 225.938462,89.2153846 C225.99544,89.0764671 226.148401,89.0033123 226.292308,89.0461538 C226.317664,89.0407527 226.343874,89.0407527 226.369231,89.0461538 C227.646154,90.4 228.923077,91.7692308 230.215385,93.0923077 C233.786481,96.949332 237.780924,100.391571 242.123077,103.353846 L242.846154,103.815385 L242.615385,102.938462 C240.464751,94.570808 239.252157,85.9897751 239,77.3538462 L239,77.1076923 L238.8,77.0153846 L238.707692,77.0153846 C235.233482,71.6920914 232.549168,65.8933514 230.738462,59.8 C230.684291,59.7212353 230.684291,59.6172262 230.738462,59.5384615 C230.830177,59.4717482 230.954438,59.4717482 231.046154,59.5384615 C231.093072,59.5715291 231.125983,59.6208954 231.138462,59.6769231 C232.789563,65.2797715 235.196311,70.6315505 238.292308,75.5846154 C238.492308,75.9230769 238.707692,76.2461538 238.923077,76.5846154 C238.923077,76.1846154 238.923077,75.7692308 238.923077,75.3692308 C238.834526,66.1782363 239.721543,57.0037921 241.569231,48 C241.57616,47.9377334 241.609858,47.88157 241.661538,47.8461538 C241.737699,47.8021827 241.831532,47.8021827 241.907692,47.8461538 C242.004031,47.909253 242.047758,48.0279423 242.015385,48.1384615 C239.523719,60.2107816 238.80334,72.5816065 239.876923,84.8615385 C239.876923,85.1076923 239.876923,85.3384615 239.876923,85.5846154 L240.369231,85.1076923 C245.779424,79.9700366 250.55215,74.2004107 254.584615,67.9230769 C254.584615,67.8461538 254.676923,67.8153846 254.769231,67.9230769 C254.85347,67.9678184 254.914921,68.046028 254.938462,68.1384615 C254.976936,68.2051018 254.976936,68.2872059 254.938462,68.3538462 C250.762204,74.8685634 245.790584,80.8376084 240.138462,86.1230769 L239.984615,86.2615385 L239.984615,86.4769231 C240.597978,92.4659842 241.683404,98.3972468 243.230769,104.215385 L243.230769,104.307692 L243.230769,104.307692 C243.275455,104.378126 243.275455,104.468028 243.230769,104.538462 L243.230769,104.630769 L243.230769,104.723077 C244.666303,109.933941 246.476135,115.034376 248.646154,119.984615 L249.030769,120.861538 C249.107692,120.553846 249.2,120.246154 249.276923,119.938462 C251.515129,111.660472 254.934911,103.748341 259.430769,96.4461538 C259.479578,96.3421411 259.601436,96.2947518 259.707692,96.3384615 C259.783634,96.362966 259.845313,96.4190384 259.876923,96.4923077 C259.908035,96.5388711 259.908035,96.5995904 259.876923,96.6461538 C255.155694,104.328928 251.618582,112.679 249.384615,121.415385 L249.384615,121.538462 L249.384615,121.661538 C254.126946,132.017974 260.271753,141.672621 267.646154,150.353846 C267.676384,150.406206 267.676384,150.470717 267.646154,150.523077 C267.591572,150.621174 267.495327,150.689112 267.384615,150.707692 L267.707692,150.661538 Z" id="Path" fill="#379CF7"></path><path d="M234.876923,187.123077 C235.384155,178.75057 234.632193,170.349344 232.646154,162.2 C229.569231,150.030769 221.876923,138.338462 211.861538,142.676923 C198.015385,149.246154 191.153846,123.261538 182.876923,130.369231 C175.353846,137.8 180.2,140.369231 166.876923,134.984615 C153.153846,130.092308 148.092308,140.169231 134.569231,144.215385 C120.723077,149.030769 127.815385,166.215385 145.030769,164.953846 C162.630769,164.6 143.8,169.030769 150.692308,175.553846 C156.353846,181.076923 186.646154,167.6 182.907692,175.092308 C178.769231,181.892308 181.953846,188.830769 189.784615,189.076923 C207.846154,189 234.584615,186.692308 234.876923,187.123077 Z" id="Path" fill="#7BC7FF"></path><path d="M241.184615,194.061538 C241.21555,193.993076 241.21555,193.914616 241.184615,193.846154 C232.246154,182.4 217.876923,168.707692 200.015385,160.261538 L199.876923,160.261538 L199.876923,160.107692 C197.676738,154.531764 194.79317,149.250389 191.292308,144.384615 C190.169231,142.753846 189.015385,141.138462 187.861538,139.507692 C187.799009,139.456108 187.708683,139.456108 187.646154,139.507692 C187.498395,139.551093 187.401809,139.692752 187.415385,139.846154 C187.410334,139.881874 187.410334,139.918126 187.415385,139.953846 C188.538462,141.492308 189.661538,143.123077 190.769231,144.723077 C193.997196,149.221461 196.711528,154.067009 198.861538,159.169231 L199.2,160.015385 L198.384615,159.646154 C190.50211,156.050538 182.209946,153.431144 173.692308,151.846154 L173.461538,151.846154 L173.461538,151.6 C173.469487,151.564543 173.469487,151.527765 173.461538,151.492308 C168.861979,146.956311 163.589608,143.157713 157.830769,140.230769 C157.746034,140.177891 157.638581,140.177891 157.553846,140.230769 C157.462438,140.311244 157.421312,140.434622 157.446154,140.553846 C157.476809,140.609551 157.525701,140.65301 157.584615,140.676923 C162.872406,143.369873 167.751722,146.798862 172.076923,150.861538 L172.953846,151.707692 L171.753846,151.492308 C162.674683,149.96438 153.448948,149.494575 144.261538,150.092308 C144.138462,150.092308 144.107692,150.092308 144.107692,150.169231 C144.061194,150.255683 144.061194,150.359702 144.107692,150.446154 C144.149141,150.55146 144.257051,150.614937 144.369231,150.6 C156.688364,149.79357 169.05744,150.946356 181.015385,154.015385 L181.723077,154.2 L181.169231,154.661538 C175.233063,159.639601 168.719605,163.885487 161.769231,167.307692 C161.769231,167.307692 161.646154,167.384615 161.676923,167.492308 C161.711505,167.587386 161.77637,167.668467 161.861538,167.723077 C161.928179,167.761552 162.010283,167.761552 162.076923,167.723077 C169.275819,164.131937 175.995088,159.650702 182.076923,154.384615 L182.246154,154.230769 L182.446154,154.230769 C188.257413,155.825337 193.919607,157.920349 199.369231,160.492308 L199.461538,160.492308 L199.461538,160.584615 C199.517993,160.652305 199.604745,160.687006 199.692308,160.676923 L199.784615,160.676923 L199.876923,160.676923 C204.800457,163.050674 209.53258,165.802507 214.030769,168.907692 L214.815385,169.446154 L213.876923,169.569231 C205.243548,170.726696 196.835334,173.185359 188.938462,176.861538 C188.83676,176.913678 188.780691,177.025816 188.8,177.138462 C188.795932,177.224113 188.83673,177.305709 188.907692,177.353846 C188.907692,177.353846 188.984615,177.353846 189.061538,177.353846 C197.359791,173.495024 206.219327,170.981533 215.307692,169.907692 L215.446154,169.907692 L215.569231,169.907692 C225.07685,176.734351 233.57122,184.871336 240.8,194.076923 C240.8,194.169231 240.923077,194.153846 240.953846,194.153846 C241.067249,194.111461 241.149378,194.011734 241.169231,193.892308 L241.184615,194.061538 Z" id="Path" fill="#379CF7"></path><path d="M226.969231,162.076923 C226.830769,162.076923 235.430769,150.523077 238.969231,136.430769 C242.8,122.584615 241.553846,106.307692 228.615385,103.953846 C210.415385,101.261538 218.292308,71.6461538 205.538462,73.1846154 C193.461538,75.4923077 197.015385,81.1538462 186.307692,67.2 C174.892308,53.5076923 163.846154,59.9692308 147.476923,54.8923077 C130.4,50.5692308 127.846154,71.8153846 146.415385,81.8307692 C164.876923,92.9846154 142.8,84.9846154 146.2,95.8153846 C148.907692,104.876923 188.061538,111.553846 179.892308,116.384615 C171.676923,120.276923 171.015385,129.092308 179,134.430769 C197.876923,146.292308 226.907692,161.507692 226.969231,162.076923 Z" id="Path" fill="#379CF7"></path><path d="M229.538462,172.953846 C229.603431,172.883402 229.63187,172.786709 229.615385,172.692308 C226.170352,151.43221 218.178207,131.165851 206.184615,113.276923 L206.076923,113.123077 L206.076923,112.953846 C207.018743,106.034499 207.060113,99.0222862 206.2,92.0923077 C205.984615,89.7846154 205.723077,87.4769231 205.446154,85.1230769 C205.44726,85.0151717 205.368343,84.9231025 205.261538,84.9076923 C205.095879,84.8449456 204.910588,84.9272974 204.846154,85.0923077 C204.838688,85.1381596 204.838688,85.1849173 204.846154,85.2307692 C205.107692,87.5076923 205.369231,89.8461538 205.6,92.0461538 C206.365953,98.4521206 206.402082,104.924343 205.707692,111.338462 C205.707692,111.692308 205.615385,112.030769 205.553846,112.384615 C205.353846,112.076923 205.138462,111.784615 204.923077,111.476923 C198.795435,102.81956 191.709489,94.8820618 183.8,87.8153846 L183.584615,87.6153846 L183.584615,87.3538462 C183.592431,87.3028618 183.592431,87.2509843 183.584615,87.2 C181.380043,79.7212847 178.094018,72.6050189 173.830769,66.0769231 C173.777932,65.9667812 173.659165,65.9042724 173.538462,65.9230769 C173.393455,65.9212596 173.26904,66.0260304 173.246154,66.1692308 C173.213325,66.231856 173.213325,66.3066056 173.246154,66.3692308 C177.180641,72.3698684 180.285692,78.8749516 182.476923,85.7076923 C182.615385,86.1692308 182.769231,86.6307692 182.907692,87.0923077 L181.784615,86.1076923 C173.265435,78.7113915 163.98224,72.2440994 154.092308,66.8153846 C153.953846,66.8153846 153.907692,66.8153846 153.876923,66.8153846 C153.780865,66.867036 153.721551,66.9678693 153.723077,67.0769231 C153.705148,67.2138409 153.78063,67.3459342 153.907692,67.4 C167.184991,74.6740867 179.332841,83.8419817 189.969231,94.6153846 C190.169231,94.8307692 190.369231,95.0461538 190.584615,95.2461538 L189.753846,95.3384615 C180.643105,96.3058209 171.449211,96.1766932 162.369231,94.9538462 C162.261538,94.9538462 162.2,94.9538462 162.169231,95.0923077 C162.123805,95.1952098 162.123805,95.3124826 162.169231,95.4153846 C162.220821,95.4945151 162.305901,95.5455628 162.4,95.5538462 C171.812571,96.8275963 181.346645,96.9309467 190.784615,95.8615385 L191.046154,95.8615385 L191.215385,96.0461538 C196.338035,101.376295 201.020044,107.113042 205.215385,113.2 L205.292308,113.292308 L205.292308,113.415385 C205.295834,113.523435 205.361916,113.619554 205.461538,113.661538 L205.569231,113.661538 L205.646154,113.769231 C209.361188,119.260553 212.68233,125.008288 215.584615,130.969231 L216.107692,132.015385 L215.061538,131.523077 C205.53421,127.023898 195.410502,123.915287 185,122.292308 C184.869183,122.261241 184.736124,122.334423 184.692308,122.461538 C184.654687,122.550013 184.654687,122.649987 184.692308,122.738462 C184.725337,122.802097 184.789903,122.843185 184.861538,122.846154 C195.801099,124.543406 206.422735,127.878226 216.369231,132.738462 L216.523077,132.815385 L216.523077,132.969231 C222.431245,145.641024 226.572444,159.063685 228.830769,172.861538 C228.830769,173 228.923077,173.030769 228.953846,173.046154 C229.087006,173.070244 229.223747,173.030361 229.323077,172.938462 L229.538462,172.953846 Z" id="Path" fill="#2481C6"></path><rect id="Rectangle" fill="#0A4D7A" x="215.953846" y="118.569231" width="197.169231" height="355.969231" rx="25.6307692"></rect><path d="M387.507692,118.569212 L241.584615,118.569212 C234.781583,118.561064 228.254389,121.257835 223.441031,126.065422 C218.627672,130.873009 215.923077,137.396963 215.923077,144.2 L215.923077,448.907692 C215.925346,456.802794 219.576887,464.253528 225.815385,469.092308 L411.015385,134.030769 C406.964842,124.64945 397.726109,118.572928 387.507692,118.569212 Z" id="Path" fill="#083954"></path><path d="M343.030769,131.046154 L288.907692,131.046154 C287.415771,131.054559 286.208405,132.261924 286.2,133.753846 L286.2,133.753846 C286.2,135.249263 287.412275,136.461538 288.907692,136.461538 L343.030769,136.461538 C344.526186,136.461538 345.738462,135.249263 345.738462,133.753846 L345.738462,133.753846 C345.730056,132.261924 344.522691,131.054559 343.030769,131.046154 Z" id="Path" fill="#FFFFFF"></path><path d="M387.507692,128.230769 L366.092308,128.230769 L358.4,142.830769 C355.526118,148.291231 349.86287,151.709321 343.692308,151.707692 L285.415385,151.707692 C279.244823,151.709321 273.581574,148.291231 270.707692,142.830769 L263.015385,128.230769 L241.584615,128.230769 C232.734581,128.23925 225.562327,135.411504 225.553846,144.261538 L225.553846,448.907692 C225.570801,457.751718 232.740578,464.914614 241.584615,464.923077 L387.507692,464.923077 C396.34923,464.914596 403.514596,457.74923 403.523077,448.907692 L403.523077,144.2 C403.489209,135.376492 396.331261,128.239172 387.507692,128.230769 Z" id="Path" fill="#CAEDFF"></path><path d="M403.523077,144.2 L403.523077,147.584615 L230.569231,460.538462 C227.370945,457.508553 225.557645,453.297914 225.553846,448.892308 L225.553846,144.276923 C225.553846,135.420882 232.728578,128.23926 241.584615,128.23065 L263,128.23065 L270.692308,142.830769 C273.573967,148.29121 279.241215,151.70814 285.415385,151.707692 L343.615385,151.707692 C349.784029,151.702437 355.443997,148.286326 358.323077,142.830769 L366.015385,128.23065 L387.430769,128.23065 C391.682403,128.214417 395.766394,129.887705 398.784294,132.882524 C401.802193,135.877342 403.506787,139.948366 403.523077,144.2 Z" id="Path" fill="#BAE6F7" opacity="0.85" style="mix-blend-mode: multiply;"></path><rect id="Rectangle" fill="#FFFFFF" x="242.123077" y="174.046154" width="244.076923" height="77.2923077" rx="11.2153846"></rect><path d="M349.953846,199.830769 L351.492308,204.446154 C351.5936,204.768265 351.893113,204.98666 352.230769,204.984615 L357.092308,204.984615 C357.430041,204.986801 357.728481,205.204867 357.833187,205.525967 C357.937894,205.847068 357.82537,206.199143 357.553846,206.4 L353.615385,209.261538 C353.347508,209.466286 353.236755,209.817004 353.338462,210.138462 L354.876923,214.753846 C354.986394,215.079698 354.871012,215.438866 354.592249,215.639999 C354.313485,215.841132 353.936258,215.837391 353.661538,215.630769 L349.661538,212.846154 C349.386392,212.646014 349.013608,212.646014 348.738462,212.846154 L344.815385,215.707692 C344.540665,215.914314 344.163438,215.918055 343.884674,215.716922 C343.605911,215.515789 343.490529,215.156621 343.6,214.830769 L345.138462,210.215385 C345.241827,209.890615 345.123708,209.536258 344.846154,209.338462 L340.923077,206.476923 C340.651553,206.276066 340.539029,205.923991 340.643736,205.60289 C340.748443,205.28179 341.046882,205.063724 341.384615,205.061538 L346.246154,205.061538 C346.58381,205.063583 346.883323,204.845188 346.984615,204.523077 L348.523077,199.907692 C348.633952,199.618669 348.904401,199.421853 349.213515,199.405234 C349.52263,199.388615 349.812622,199.555299 349.953846,199.830769 L349.953846,199.830769 Z" id="Path" fill="#FBBE42"></path><path d="M376.938462,199.830769 L378.476923,204.446154 C378.588146,204.767676 378.890555,204.983682 379.230769,204.984615 L384.092308,204.984615 C384.430041,204.986801 384.728481,205.204867 384.833187,205.525967 C384.937894,205.847068 384.82537,206.199143 384.553846,206.4 L380.538462,209.276923 C380.264924,209.477668 380.147771,209.829128 380.246154,210.153846 L381.784615,214.769231 C381.885435,215.09008 381.77056,215.439499 381.499021,215.637932 C381.227482,215.836364 380.859679,215.839671 380.584615,215.646154 L376.661538,212.846154 C376.386392,212.646014 376.013608,212.646014 375.738462,212.846154 L371.8,215.707692 C371.524937,215.90121 371.157133,215.897902 370.885594,215.69947 C370.614056,215.501038 370.49918,215.151618 370.6,214.830769 L372.138462,210.215385 C372.236844,209.890666 372.119691,209.539207 371.846154,209.338462 L367.907692,206.476923 C367.636168,206.276066 367.523645,205.923991 367.628351,205.60289 C367.733058,205.28179 368.031497,205.063724 368.369231,205.061538 L373.230769,205.061538 C373.570984,205.060605 373.873392,204.844599 373.984615,204.523077 L375.523077,199.907692 C375.627663,199.616616 375.896412,199.41649 376.205252,199.399705 C376.514091,199.38292 376.802946,199.552742 376.938462,199.830769 Z" id="Path" fill="#FBBE42"></path><path d="M403.938462,199.830769 L405.476923,204.446154 C405.578216,204.768265 405.877729,204.98666 406.215385,204.984615 L411.092308,204.984615 C411.427244,204.993213 411.719764,205.213543 411.820491,205.533089 C411.921218,205.852636 411.807923,206.200885 411.538462,206.4 L407.615385,209.261538 C407.337831,209.459335 407.219712,209.813692 407.323077,210.138462 L408.861538,214.753846 C408.971009,215.079698 408.855627,215.438866 408.576864,215.639999 C408.298101,215.841132 407.920873,215.837391 407.646154,215.630769 L403.615385,212.846154 C403.340238,212.646014 402.967455,212.646014 402.692308,212.846154 L398.753846,215.707692 C398.479127,215.914314 398.101899,215.918055 397.823136,215.716922 C397.544373,215.515789 397.428991,215.156621 397.538462,214.830769 L399.076923,210.215385 C399.188734,209.894002 399.076105,209.537345 398.8,209.338462 L394.861538,206.476923 C394.590014,206.276066 394.477491,205.923991 394.582197,205.60289 C394.686904,205.28179 394.985343,205.063724 395.323077,205.061538 L400.184615,205.061538 C400.522271,205.063583 400.821784,204.845188 400.923077,204.523077 L402.461538,199.907692 C402.556172,199.589258 402.841085,199.36493 403.172834,199.347651 C403.504584,199.330373 403.81126,199.523888 403.938462,199.830769 Z" id="Path" fill="#FBBE42"></path><path d="M430.938462,199.830769 L432.476923,204.446154 C432.588146,204.767676 432.890555,204.983682 433.230769,204.984615 L438.092308,204.984615 C438.430041,204.986801 438.728481,205.204867 438.833187,205.525967 C438.937894,205.847068 438.82537,206.199143 438.553846,206.4 L434.615385,209.261538 C434.339279,209.460422 434.226651,209.817079 434.338462,210.138462 L435.876923,214.753846 C435.977743,215.074695 435.862867,215.424115 435.591329,215.622547 C435.31979,215.820979 434.951986,215.824286 434.676923,215.630769 L430.646154,212.846154 C430.371007,212.646014 429.998224,212.646014 429.723077,212.846154 L425.784615,215.707692 C425.509552,215.90121 425.141749,215.897902 424.87021,215.69947 C424.598671,215.501038 424.483796,215.151618 424.584615,214.830769 L426.123077,210.215385 C426.226442,209.890615 426.108323,209.536258 425.830769,209.338462 L421.892308,206.476923 C421.620783,206.276066 421.50826,205.923991 421.612967,205.60289 C421.717673,205.28179 422.016112,205.063724 422.353846,205.061538 L427.230769,205.061538 C427.568425,205.063583 427.867938,204.845188 427.969231,204.523077 L429.507692,199.907692 C429.618568,199.618669 429.889016,199.421853 430.198131,199.405234 C430.507245,199.388615 430.797237,199.555299 430.938462,199.830769 Z" id="Path" fill="#FBBE42"></path><path d="M457.923077,199.830769 L459.461538,204.446154 C459.568735,204.770663 459.87365,204.98846 460.215385,204.984615 L465.076923,204.984615 C465.414657,204.986801 465.713096,205.204867 465.817803,205.525967 C465.922509,205.847068 465.809986,206.199143 465.538462,206.4 L461.6,209.261538 C461.326463,209.462284 461.20931,209.813743 461.307692,210.138462 L462.846154,214.753846 C462.946974,215.074695 462.832098,215.424115 462.560559,215.622547 C462.289021,215.820979 461.921217,215.824286 461.646154,215.630769 L457.646154,212.846154 C457.371007,212.646014 456.998224,212.646014 456.723077,212.846154 L452.846154,215.661538 C452.571091,215.855056 452.203287,215.851748 451.931748,215.653316 C451.660209,215.454884 451.545334,215.105464 451.646154,214.784615 L453.184615,210.169231 C453.296426,209.847848 453.183798,209.491191 452.907692,209.292308 L448.969231,206.430769 C448.697707,206.229912 448.585183,205.877837 448.68989,205.556737 C448.794596,205.235636 449.093035,205.01757 449.430769,205.015385 L454.292308,205.015385 C454.632522,205.014451 454.934931,204.798445 455.046154,204.476923 L456.584615,199.861538 C456.721769,199.625178 456.972021,199.477204 457.24522,199.470923 C457.51842,199.464643 457.775207,199.600961 457.923077,199.830769 Z" id="Path" fill="#B1D7DD"></path><rect id="Rectangle" fill="#B1D7DD" x="340.553846" y="223.4" width="78.4923077" height="2.18461538"></rect><rect id="Rectangle" fill="#379CF7" x="340.553846" y="187.523077" width="78.4923077" height="4.10769231"></rect><rect id="Rectangle" fill="#B1D7DD" x="340.553846" y="231.707692" width="78.4923077" height="2.18461538"></rect><rect id="Rectangle" fill="#B1D7DD" x="340.553846" y="239.415385" width="35.8769231" height="2.18461538"></rect><circle id="Oval" fill="#7BC7FF" transform="translate(292.088032, 213.829878) rotate(-13.170000) translate(-292.088032, -213.829878) " cx="292.088032" cy="213.829878" r="31.3384615"></circle><g id="Group" transform="translate(260.538462, 189.769231)"><path d="M47.0615385,43.0769231 L44.3076923,14.1230769 C44.3076923,6.70769231 41.4,-0.123076923 33.5384615,1.90769231 L33.5384615,1.90769231 C30.0060073,-0.0113391013 25.6453879,0.519841173 22.6769231,3.23076923 C19.5374639,6.37436247 17.7962359,10.6497982 17.8461538,15.0923077 L14.7692308,43.2307692 L47.0615385,43.0769231 Z" id="Path" fill="#0A4D7A"></path><path d="M36.1692308,28.1846154 L36.1692308,34.5538462 C36.1692308,34.5538462 35.2769231,39.5384615 31.0769231,40.3846154 C28.426981,39.5525825 26.4738557,37.29577 26.0307692,34.5538462 L26.0307692,28.1846154 L36.1692308,28.1846154 Z" id="Path" fill="#FFA683"></path><path d="M36.1692308,27.2769231 L36.1692308,31.3384615 C33.0010898,33.0287181 29.1989102,33.0287181 26.0307692,31.3384615 L26.0307692,27.2769231 L36.1692308,27.2769231 Z" id="Path" fill="#E57C5C"></path><path d="M41.3846154,14.4461538 C38.4354551,14.2344922 35.6809208,12.8957885 33.6923077,10.7076923 C30.8461538,13.1692308 20.8923077,14.4461538 20.8923077,14.4461538 L20.8923077,18.3692308 C21.0292581,21.7294291 22.1588613,24.9736921 24.1384615,27.6923077 C25.789109,29.9244841 28.4007299,31.2413597 31.1769231,31.2413597 C33.9531163,31.2413597 36.5647371,29.9244841 38.2153846,27.6923077 C40.1949849,24.9736921 41.324588,21.7294291 41.4615385,18.3692308 L41.3846154,14.4461538 Z" id="Path" fill="#FFA683"></path><path d="M56.1692308,45.1692308 C52.2,38.3384615 35.3846154,34.5538462 35.3846154,34.5538462 L30.9692308,36.2615385 L26.5538462,34.5538462 C26.5538462,34.5538462 9.73846154,38.3384615 5.76923077,45.1692308 L0.892307692,81.9692308 L8.58461538,81.8461538 L13.1076923,51.0769231 C13.1076923,51.0769231 15.9692308,61 15.8153846,66.8 C15.4664091,71.9628915 14.8088238,77.1002768 13.8461538,82.1846154 L48,82.1846154 C47.03733,77.1002768 46.3797447,71.9628915 46.0307692,66.8 C45.8769231,61 48.7384615,51.0769231 48.7384615,51.0769231 L53.2615385,81.8461538 L60.9538462,81.9692308 L56.1692308,45.1692308 Z" id="Path" fill="#FFA683"></path><path d="M44.6153846,37.4153846 C42.8516846,43.4414743 37.3250387,47.5824395 31.0461538,47.5824395 C24.767269,47.5824395 19.2406231,43.4414743 17.4769231,37.4153846 C14.8625431,38.3944415 12.3568165,39.642149 10,41.1384615 L13.0769231,51.1538462 C13.1270616,51.236439 13.168317,51.3241068 13.2,51.4153846 L13.2,51.1538462 L13.5230769,52.3076923 L13.6153846,52.6615385 C14.9265485,57.2954305 15.6957913,62.0657689 15.9076923,66.8769231 C15.5587168,72.0398146 14.9011315,77.1771999 13.9384615,82.2615385 L48.0923077,82.2615385 C47.1296377,77.1771999 46.4720524,72.0398146 46.1230769,66.8769231 C45.9692308,61.0769231 48.8307692,51.1538462 48.8307692,51.1538462 L48.8307692,51.5692308 C48.89328,51.4261494 48.9652335,51.2873819 49.0461538,51.1538462 L52.1230769,41.2 C49.7656563,39.6690766 47.2481861,38.400024 44.6153846,37.4153846 L44.6153846,37.4153846 Z" id="Path" fill="#379CF7"></path></g><path d="M508.415385,263.784615 C507.297864,263.764776 506.278987,263.140493 505.753846,262.153846 L489.769231,230.184615 C489.769231,230.184615 487.846154,222.492308 485.584615,222.492308 L485.353846,232.676923 L496.215385,271.969231 C496.846154,274.430769 498.123077,276.584615 501.4,276.584615 C510.46185,277.206054 519.445073,278.67922 528.230769,280.984615 C533.136663,282.278275 538.294106,282.278275 543.2,280.984615 C543.615385,262.953846 515.261538,263.938462 508.415385,263.784615 Z" id="Path" fill="#FFA683"></path><path d="M532.446154,259.769231 L532.446154,268.861538 L518.6,268.861538 L518.6,263.738462 C518.6,263.738462 509.523077,261.6 509.969231,253.4 C510.415385,245.2 514.261538,241.246154 516.338462,240.615385 C518.415385,239.984615 528.430769,244.015385 528.646154,244.523077 C528.861538,245.030769 529.907692,253.753846 529.907692,253.753846 L532.446154,259.769231 Z" id="Path" fill="#FFA683"></path><path d="M517.953846,247.353846 C517.953846,247.353846 520.4,243.907692 522.676923,245.615385 C524.953846,247.323077 523.815385,250.738462 520.969231,252.446154 C520.969231,252.446154 523.815385,262.138462 529.507692,261.569231 C537.16449,260.283306 542.552396,253.335919 541.892308,245.6 C541.261538,236.215385 529,229.6 522.307692,230.923077 C515.615385,232.246154 508.953846,239.738462 517.953846,247.353846 Z" id="Path" fill="#004CBA"></path><path d="M541.830769,239.676923 C541.830769,239.676923 549.261538,230.215385 556.692308,238.415385 C564.123077,246.615385 568.8,255.8 572.2,257.569231 C575.6,259.338462 569.292308,263.615385 561.107692,260.969231 C552.923077,258.323077 542.338462,248.230769 541.830769,239.676923 Z" id="Path" fill="#004CBA"></path><path d="M518.646154,268.861538 L518.646154,263.738462 C518.646154,263.738462 524.292308,263.953846 526.692308,261.769231 C526.692308,261.769231 525,265.676923 521.323077,265.784615 L521.323077,268.861538 L518.646154,268.861538 Z" id="Path" fill="#ED7D5A"></path><path d="M512.584615,341.553846 C512.584615,341.553846 515.846154,392.323077 519.969231,403.015385 C524.092308,413.707692 550.276923,462.076923 550.276923,462.076923 L563.830769,459.107692 L544.507692,401.292308 C544.353846,404.830769 541.784615,388.169231 546.569231,371.292308 C549.299879,361.538423 548.420413,351.126861 544.092308,341.969231 L510.246154,341.6" id="Path" fill="#006CBC"></path><path d="M543.830769,339.415385 C543.830769,339.415385 542.569231,353.523077 526.323077,369.553846 C510.076923,385.584615 503.507692,396.584615 503.507692,396.584615 L501.061538,466.692308 L487.553846,466.692308 C487.553846,466.692308 479.569231,392.846154 479.784615,390.230769 C480,387.615385 502.4,339.461538 505.061538,335.276923 C507.723077,331.092308 543.830769,339.415385 543.830769,339.415385 Z" id="Path" fill="#379CF7"></path><path d="M533.861538,268.123077 C533.861538,268.123077 548.353846,269.215385 543.015385,287.184615 C537.184615,306.830769 543.876923,338.323077 545.2,341.569231 L540.861538,343.307692 C527.833553,348.201003 513.422032,347.8925 500.615385,342.446154 L500.615385,342.446154 C500.615385,342.446154 512.138462,317.030769 503.938462,303.738462 C498.676923,295.184615 500.230769,286.553846 506.384615,278.907692 C510.369231,273.969231 515.4,268.8 517.384615,268.707692 L533.861538,268.123077 Z" id="Path" fill="#57BFFF"></path><path d="M487.553846,466.692308 L490.415385,466.692308 L484.615385,390.769231 C485.584615,389.230769 488.892308,383.076923 498.923077,363.815385 C502.118593,357.697496 504.695469,351.275921 506.615385,344.646154 C504.788222,344.11731 502.990764,343.490768 501.230769,342.769231 C494.076923,357.476923 479.984615,388.138462 479.8,390.230769 C479.569231,392.846154 487.553846,466.692308 487.553846,466.692308 Z" id="Path" fill="#2481C6"></path><path d="M515.615385,299 C508.846154,301.507692 513.876923,319.492308 506.6,344.615385 C504.567703,344.017979 502.569812,343.309216 500.615385,342.492308 L500.615385,342.492308 C500.615385,342.492308 512.138462,317.076923 503.938462,303.784615 C501.520551,300.057815 500.436005,295.622019 500.861538,291.2 L529.6,284.676923 C529.6,284.676923 524.830769,295.538462 515.615385,299 Z" id="Path" fill="#30AFEF"></path><path d="M453.676923,253.938462 C453.676923,253.938462 479.984615,297.661538 487.661538,300.092308 C491.076923,301.2 512.353846,292.892308 521.323077,291.415385 C526.171334,290.620683 529.582322,286.215943 529.138462,281.323077 L529.138462,281.323077 C528.615385,275.707692 522.184615,270.938462 516.676923,272.092308 L487.153846,281.323077 C487.153846,281.323077 462.076923,255.523077 456.569231,249.615385 C456.569231,249.615385 454.261538,242.338462 450.830769,242.338462 C447.769231,242.338462 452.415385,251.430769 453.676923,253.938462 Z" id="Path" fill="#FFA683"></path><path d="M474.661538,471.092308 C478.384615,469.876923 485.353846,468.4 487.892308,466.615385 L501.015385,466.615385 C500.892308,469.246154 500.815385,471.815385 500.784615,473.507692 C500.759418,474.651186 499.820662,475.562534 498.676923,475.553908 L472.523077,475.553908 C471.790952,475.534093 471.156337,475.041498 470.955599,474.337154 C470.754861,473.63281 471.034442,472.87967 471.646154,472.476923 C472.5867,471.886047 473.600405,471.42057 474.661538,471.092308 L474.661538,471.092308 Z" id="Path" fill="#004CBA"></path><path d="M538.676923,469.384615 C542.030769,467.369231 548.492308,464.353846 550.553846,462.046154 L563.338462,459.076923 C563.815385,461.676923 564.323077,464.184615 564.661538,465.846154 C564.902385,466.948328 564.219335,468.041209 563.123077,468.307692 L537.661538,474.215385 C536.932796,474.361178 536.194213,474.014464 535.840816,473.360681 C535.48742,472.706898 535.60192,471.899058 536.123077,471.369231 C536.893906,470.610197 537.751034,469.944116 538.676923,469.384615 L538.676923,469.384615 Z" id="Path" fill="#004CBA"></path><path d="M487.661538,285.153846 C493.815385,285.307692 521.507692,274.938462 528.861538,279.892308 C527.507692,274.938462 521.707692,271.030769 516.676923,272.2 L487.153846,281.430769 C487.153846,281.430769 462.076923,255.523077 456.569231,249.615385 C456.569231,249.615385 480.938462,285.046154 487.661538,285.153846 Z" id="Path" fill="#ED7D5A" opacity="0.58"></path><path d="M541.630769,239.107692 L539.707692,239.461538 C541.13051,241.822585 541.81619,244.554593 541.676923,247.307692 L544.169231,246.830769 C544.169231,246.830769 543.907692,239.923077 541.630769,239.107692 Z" id="Path" fill="#FFFFFF"></path><rect id="Rectangle" fill="#FFFFFF" x="135.446154" y="269.246154" width="244.076923" height="77.2923077" rx="11.2153846"></rect><path d="M243.261538,295.030769 L244.8,299.646154 C244.907196,299.970663 245.212111,300.18846 245.553846,300.184615 L250.415385,300.184615 C250.753118,300.186801 251.051557,300.404867 251.156264,300.725967 C251.260971,301.047068 251.148447,301.399143 250.876923,301.6 L246.938462,304.461538 C246.664924,304.662284 246.547771,305.013743 246.646154,305.338462 L248.184615,309.953846 C248.285435,310.274695 248.17056,310.624115 247.899021,310.822547 C247.627482,311.020979 247.259679,311.024286 246.984615,310.830769 L243.046154,307.969231 C242.771007,307.769091 242.398224,307.769091 242.123077,307.969231 L238.184615,310.830769 C237.909552,311.024286 237.541749,311.020979 237.27021,310.822547 C236.998671,310.624115 236.883796,310.274695 236.984615,309.953846 L238.523077,305.338462 C238.634888,305.017079 238.522259,304.660422 238.246154,304.461538 L234.307692,301.6 C234.036168,301.399143 233.923645,301.047068 234.028351,300.725967 C234.133058,300.404867 234.431497,300.186801 234.769231,300.184615 L239.630769,300.184615 C239.970984,300.183682 240.273392,299.967676 240.384615,299.646154 L241.923077,295.030769 C242.065664,294.797787 242.319157,294.655729 242.592308,294.655729 C242.865459,294.655729 243.118952,294.797787 243.261538,295.030769 Z" id="Path" fill="#FBBE42"></path><path d="M270.261538,295.030769 L271.8,299.646154 C271.901292,299.968265 272.200806,300.18666 272.538462,300.184615 L277.4,300.184615 C277.737734,300.186801 278.036173,300.404867 278.140879,300.725967 C278.245586,301.047068 278.133063,301.399143 277.861538,301.6 L273.923077,304.461538 C273.655201,304.666286 273.544447,305.017004 273.646154,305.338462 L275.184615,309.953846 C275.294086,310.279698 275.178704,310.638866 274.899941,310.839999 C274.621178,311.041132 274.24395,311.037391 273.969231,310.830769 L270.030769,307.969231 C269.760446,307.771696 269.3934,307.771696 269.123077,307.969231 L265.153846,310.861538 C264.879127,311.06816 264.501899,311.071901 264.223136,310.870768 C263.944373,310.669635 263.828991,310.310467 263.938462,309.984615 L265.476923,305.369231 C265.57863,305.047773 265.467876,304.697055 265.2,304.492308 L261.261538,301.630769 C260.990014,301.429912 260.877491,301.077837 260.982197,300.756737 C261.086904,300.435636 261.385343,300.21757 261.723077,300.215385 L266.584615,300.215385 C266.922271,300.217429 267.221784,299.999034 267.323077,299.676923 L268.861538,295.061538 C268.989243,294.794617 269.256252,294.622241 269.552079,294.615739 C269.847905,294.609238 270.12223,294.769716 270.261538,295.030769 Z" id="Path" fill="#FBBE42"></path><path d="M297.261538,295.030769 L298.8,299.646154 C298.911223,299.967676 299.213631,300.183682 299.553846,300.184615 L304.415385,300.184615 C304.753118,300.186801 305.051557,300.404867 305.156264,300.725967 C305.260971,301.047068 305.148447,301.399143 304.876923,301.6 L300.938462,304.461538 C300.662356,304.660422 300.549728,305.017079 300.661538,305.338462 L302.2,309.953846 C302.30082,310.274695 302.185944,310.624115 301.914406,310.822547 C301.642867,311.020979 301.275063,311.024286 301,310.830769 L297.061538,307.969231 C296.786392,307.769091 296.413608,307.769091 296.138462,307.969231 L292.2,310.830769 C291.924937,311.024286 291.557133,311.020979 291.285594,310.822547 C291.014056,310.624115 290.89918,310.274695 291,309.953846 L292.538462,305.338462 C292.636844,305.013743 292.519691,304.662284 292.246154,304.461538 L288.230769,301.615385 C287.959245,301.414528 287.846722,301.062452 287.951428,300.741352 C288.056135,300.420252 288.354574,300.202186 288.692308,300.2 L293.553846,300.2 C293.895581,300.203845 294.200496,299.986048 294.307692,299.661538 L295.846154,295.046154 C295.973593,294.772276 296.246942,294.595879 296.549,294.59255 C296.851058,294.589313 297.128176,294.759726 297.261538,295.030769 Z" id="Path" fill="#FBBE42"></path><path d="M324.246154,295.030769 L325.784615,299.646154 C325.885908,299.968265 326.185421,300.18666 326.523077,300.184615 L331.307692,300.184615 C331.645426,300.186801 331.943865,300.404867 332.048572,300.725967 C332.153278,301.047068 332.040755,301.399143 331.769231,301.6 L327.830769,304.461538 C327.553215,304.659335 327.435097,305.013692 327.538462,305.338462 L329.076923,309.953846 C329.177743,310.274695 329.062867,310.624115 328.791329,310.822547 C328.51979,311.020979 328.151986,311.024286 327.876923,310.830769 L323.938462,307.969231 C323.663315,307.769091 323.290531,307.769091 323.015385,307.969231 L319.076923,310.830769 C318.80186,311.024286 318.434056,311.020979 318.162517,310.822547 C317.890979,310.624115 317.776103,310.274695 317.876923,309.953846 L319.415385,305.338462 C319.527195,305.017079 319.414567,304.660422 319.138462,304.461538 L315.2,301.6 C314.928476,301.399143 314.815952,301.047068 314.920659,300.725967 C315.025366,300.404867 315.323805,300.186801 315.661538,300.184615 L320.538462,300.184615 C320.878676,300.183682 321.181085,299.967676 321.292308,299.646154 L322.830769,295.030769 C322.961196,294.75834 323.236421,294.584965 323.538462,294.584965 C323.840502,294.584965 324.115727,294.75834 324.246154,295.030769 Z" id="Path" fill="#FBBE42"></path><path d="M351.307692,295.030769 L352.846154,299.646154 C352.947446,299.968265 353.246959,300.18666 353.584615,300.184615 L358.446154,300.184615 C358.783888,300.186801 359.082327,300.404867 359.187033,300.725967 C359.29174,301.047068 359.179217,301.399143 358.907692,301.6 L354.969231,304.461538 C354.693126,304.660422 354.580497,305.017079 354.692308,305.338462 L356.230769,309.953846 C356.34024,310.279698 356.224858,310.638866 355.946095,310.839999 C355.667332,311.041132 355.290104,311.037391 355.015385,310.830769 L351.076923,307.969231 C350.801776,307.769091 350.428993,307.769091 350.153846,307.969231 L346.230769,310.830769 C345.95605,311.037391 345.578822,311.041132 345.300059,310.839999 C345.021296,310.638866 344.905914,310.279698 345.015385,309.953846 L346.553846,305.338462 C346.657211,305.013692 346.539092,304.659335 346.261538,304.461538 L342.338462,301.6 C342.069,301.400885 341.955705,301.052636 342.056432,300.733089 C342.157159,300.413543 342.449679,300.193213 342.784615,300.184615 L347.661538,300.184615 C347.999194,300.18666 348.298708,299.968265 348.4,299.646154 L349.938462,295.030769 C350.077212,294.782949 350.339058,294.629459 350.623077,294.629459 C350.907096,294.629459 351.168941,294.782949 351.307692,295.030769 Z" id="Path" fill="#FBBE42"></path><rect id="Rectangle" fill="#B1D7DD" x="233.876923" y="318.615385" width="78.4923077" height="2.18461538"></rect><rect id="Rectangle" fill="#0A4D7A" x="233.876923" y="282.723077" width="78.4923077" height="4.10769231"></rect><rect id="Rectangle" fill="#B1D7DD" x="233.876923" y="326.907692" width="78.4923077" height="2.18461538"></rect><rect id="Rectangle" fill="#B1D7DD" x="233.876923" y="334.615385" width="35.8769231" height="2.18461538"></rect><circle id="Oval" fill="#7BC7FF" transform="translate(185.368680, 309.058530) rotate(-45.000000) translate(-185.368680, -309.058530) " cx="185.36868" cy="309.05853" r="31.3384615"></circle><path d="M118.446154,428.769231 C118.446154,428.769231 171.6,384.246154 180.938462,399.984615 C190.276923,415.723077 176.523077,466.692308 176.523077,466.692308 L118.446154,428.769231 Z" id="Path" fill="#0A85E0"></path><path d="M146.338462,446.969231 L176.523077,466.692308 C176.523077,466.692308 189.107692,420.107692 182.015385,402.276923 C185.261538,425.692308 160.384615,440.538462 146.338462,446.969231 Z" id="Path" fill="#006CBC"></path><path d="M145.676923,424.015385 C145.676923,424.015385 178.584615,450.430769 181.276923,459.938462 C185.615385,475.323077 159.846154,473.646154 148.707692,473.646154 C137.569231,473.646154 66.6923077,471.676923 66.6923077,471.676923 L67.3230769,460.769231 L132.784615,457.692308 C132.784615,457.692308 96.4615385,452.276923 97.8153846,431.307692 C99.1692308,410.338462 145.676923,424.015385 145.676923,424.015385 Z" id="Path" fill="#379CF7"></path><path d="M179.492308,468.661538 C173.476923,474.6 157.030769,473.630769 148.723077,473.630769 C137.584615,473.630769 66.6307692,471.676923 66.6307692,471.676923 L67.2923077,460.753846 L132.738462,457.676923 C132.738462,457.676923 158.892308,470.230769 178.984615,468.753846 L179.492308,468.661538 Z" id="Path" fill="#0A85E0"></path><path d="M66.9538462,471.492308 C66.9538462,471.492308 64.0769231,478 66.2769231,482.261538 C68.4769231,486.523077 58.9076923,483.430769 57.3692308,474.938462 C55.8307692,466.446154 56.5692308,456.307692 67.2615385,460.861538 L66.9538462,471.492308 Z" id="Path" fill="#004CBA"></path><path d="M103.846154,358.569231 C103.846154,358.569231 127.738462,289.523077 128.461538,289.830769 C130.966615,290.804855 133.537049,291.60169 136.153846,292.215385 L126.307692,368 L103.846154,358.569231 Z" id="Path" fill="#0A4D7A"></path><path d="M128.538462,350.692308 C123.107692,348.123077 116.230769,345.123077 108.353846,345.615385 C105.076923,355.015385 103.846154,358.569231 103.846154,358.569231 L126.323077,368 L128.538462,350.692308 Z" id="Path" fill="#083954"></path><path d="M133.769231,340.307692 C132,346.830769 125,345.615385 125,345.615385 L125,351.769231 L112.938462,351.769231 L112.938462,343.384615 L112.938462,343.384615 C119.2,344.830769 126.015385,340.307692 123,338.030769 C119.984615,335.753846 119.369231,332.107692 120.923077,330.338462 C122.476923,328.569231 126.276923,329.876923 126.276923,329.876923 C128.908259,329.959242 131.527922,329.492942 133.969231,328.507692 C134.69405,332.41468 134.626036,336.427512 133.769231,340.307692 Z" id="Path" fill="#FFA683"></path><path d="M126.323077,329.907692 C126.323077,329.907692 122.553846,328.553846 121,330.353846 C119.446154,332.153846 120.061538,335.876923 123.076923,338.046154 C126.092308,340.215385 119.261538,344.830769 112.984615,343.384615 C106.707692,341.938462 103.215385,328.846154 108.6,320.307692 C113.538462,312.492308 130.892308,309.092308 134.4,317.230769 C137.907692,325.369231 138.092308,329.584615 126.323077,329.907692 Z" id="Path" fill="#004CBA"></path><path d="M125,351.815385 L125,345.661538 C123.070507,345.421139 121.175648,344.95646 119.353846,344.276923 C120.347555,345.492674 121.538496,346.532798 122.876923,347.353846 L122.876923,351.8 L125,351.815385 Z" id="Path" fill="#E57C5C"></path><path d="M128.230769,351.938462 C128.230769,351.938462 108.230769,345.030769 102.661538,360.538462 C97.0923077,376.046154 106.6,413.369231 96.5076923,426.153846 L96.5076923,426.153846 C112.230513,433.502815 130.262279,434.157909 146.476923,427.969231 L148.661538,427.138462 C148.661538,427.138462 141.692308,379.6 141.353846,381.261538 C141.076923,382.646154 164.907692,390.246154 169.661538,387.646154 C174.415385,385.046154 203.169231,352.584615 203.169231,352.584615 L193.492308,351.153846 L167.492308,368.230769 C167.492308,368.230769 134.784615,352.353846 128.230769,351.938462 Z" id="Path" fill="#0A4D7A"></path><path d="M203.092308,352.615385 C203.092308,352.615385 213.061538,348.323077 213.676923,346.353846 L199.307692,346.353846 C197.816918,346.343677 196.413035,347.054214 195.538462,348.261538 L193.415385,351.184615 L203.092308,352.615385 Z" id="Path" fill="#FFA683"></path><path d="M148.584615,427.169231 C148.584615,427.169231 142.430769,385.415385 141.415385,381.538462 C141.604108,381.692542 141.804735,381.831438 142.015385,381.953846 L141.276923,381.292308 C141.276923,381.292308 126.076923,377.6 120.661538,371.2 C120.661538,371.2 125.830769,381.784615 132.476923,384.246154 C138.4,386.430769 136.292308,418.446154 140.861538,429.815385 C142.723077,429.307692 144.584615,428.707692 146.4,428.015385 L148.584615,427.169231 Z" id="Path" fill="#083954"></path><path d="M129.184615,290.169231 C129.184615,290.169231 131.723077,281.107692 135.507692,280.461538 L135.507692,292.292308 L129.184615,290.169231 Z" id="Path" fill="#FFA683"></path><g id="Group" transform="translate(151.307692, 286.692308)"><path d="M68.4769231,68.2769231 L66.4615385,50.1846154 C66.0921906,47.2542603 64.4482501,44.6363414 61.9692308,43.0307692 L55.6923077,38.9230769 L55.6923077,39.0769231 L55.6923077,38.9384615 L50.5230769,36.9384615 L45.2461538,34.8923077 L40.8923077,33.2153846 L38.9692308,32.4615385 L34.1692308,34.9230769 L29.3846154,32.4615385 L27.6923077,33.1230769 L23.5846154,34.6615385 L18.0153846,36.8153846 L12.6615385,38.8923077 L12.6615385,38.9846154 L6.50769231,42.9846154 C4.02867298,44.5901875 2.38473249,47.2081065 2.01538462,50.1384615 L0,68.2769231 L12.7230769,68.2769231 L12.7230769,83.3230769 L55.5384615,83.3230769 L55.5384615,68.2769231 L68.4769231,68.2769231 Z" id="Path" fill="#FBBE42"></path><path d="M34.3538462,0.692307692 L34.3538462,0.692307692 C27.2906051,0.692307692 21.5623356,6.41368709 21.5538462,13.4769231 L21.5538462,19.6307692 L47.1384615,19.6307692 L47.1384615,13.4769231 C47.1384615,6.41617497 41.4145943,0.692307692 34.3538462,0.692307692 Z" id="Path" fill="#0A4D7A"></path><path d="M39.4153846,29.1076923 L39.4153846,33.5846154 C39.398749,33.7043433 39.3730339,33.8226329 39.3384615,33.9384615 C38.6769231,36.5846154 36.4461538,41.6307692 34.2461538,41.6307692 C32.0461538,41.6307692 29.9076923,36.3846154 29.4153846,33.7076923 C29.4117307,33.666748 29.4117307,33.6255597 29.4153846,33.5846154 L29.4153846,29.1076923 L39.4153846,29.1076923 Z" id="Path" fill="#FFA683"></path><path d="M39.4153846,28.2153846 L39.4153846,32.2153846 C36.2888211,33.8975419 32.5265636,33.8975419 29.4,32.2153846 L29.4,28.2153846 L39.4153846,28.2153846 Z" id="Path" fill="#E57C5C"></path><path d="M27.6923077,19.6307692 C27.6923077,17.9314315 26.3147223,16.5538462 24.6153846,16.5538462 C22.9160469,16.5538462 21.5384615,17.9314315 21.5384615,19.6307692 C21.5384615,21.3301069 22.9160469,22.7076923 24.6153846,22.7076923 C26.3147223,22.7076923 27.6923077,21.3301069 27.6923077,19.6307692 Z" id="Path" fill="#FFA683"></path><path d="M47.0615385,19.6307692 C47.0615385,17.9314315 45.6839531,16.5538462 43.9846154,16.5538462 C42.2852777,16.5538462 40.9076923,17.9314315 40.9076923,19.6307692 C40.9076923,21.3301069 42.2852777,22.7076923 43.9846154,22.7076923 C45.6839531,22.7076923 47.0615385,21.3301069 47.0615385,19.6307692 Z" id="Path" fill="#FFA683"></path><path d="M44.6153846,14.3692308 C42.729594,13.3977468 40.9937762,12.1593574 39.4615385,10.6923077 L29.4,10.6923077 C28.5846154,12.9692308 24.3692308,14.3692308 24.3692308,14.3692308 L24.2769231,19.4 C24.4174279,22.7262136 25.5358866,25.9370998 27.4923077,28.6307692 C29.1247499,30.8127508 31.6903321,32.0974461 34.4153846,32.0974461 C37.1404371,32.0974461 39.7060193,30.8127508 41.3384615,28.6307692 C43.2894012,25.9353444 44.4024583,22.7246028 44.5384615,19.4 L44.6153846,14.3692308 Z" id="Path" fill="#FFA683"></path></g><rect id="Rectangle" fill="#FFFFFF" x="242.123077" y="363.876923" width="244.076923" height="77.2923077" rx="11.2153846"></rect><path d="M349.953846,389.661538 L351.492308,394.276923 C351.5936,394.599034 351.893113,394.817429 352.230769,394.815385 L357.092308,394.815385 C357.430041,394.81757 357.728481,395.035636 357.833187,395.356737 C357.937894,395.677837 357.82537,396.029912 357.553846,396.230769 L353.615385,399.092308 C353.347508,399.297055 353.236755,399.647773 353.338462,399.969231 L354.876923,404.584615 C354.986394,404.910467 354.871012,405.269635 354.592249,405.470768 C354.313485,405.671901 353.936258,405.66816 353.661538,405.461538 L349.723077,402.6 C349.44793,402.39986 349.075147,402.39986 348.8,402.6 L344.876923,405.461538 C344.602204,405.66816 344.224976,405.671901 343.946213,405.470768 C343.66745,405.269635 343.552068,404.910467 343.661538,404.584615 L345.2,399.969231 C345.303365,399.644461 345.185246,399.290104 344.907692,399.092308 L340.984615,396.230769 C340.713091,396.029912 340.600568,395.677837 340.705274,395.356737 C340.809981,395.035636 341.10842,394.81757 341.446154,394.815385 L346.307692,394.815385 C346.645348,394.817429 346.944861,394.599034 347.046154,394.276923 L348.584615,389.661538 C348.723366,389.413718 348.985212,389.260229 349.269231,389.260229 C349.55325,389.260229 349.815095,389.413718 349.953846,389.661538 L349.953846,389.661538 Z" id="Path" fill="#FBBE42"></path><path d="M376.938462,389.661538 L378.476923,394.276923 C378.588146,394.598445 378.890555,394.814451 379.230769,394.815385 L384.092308,394.815385 C384.430041,394.81757 384.728481,395.035636 384.833187,395.356737 C384.937894,395.677837 384.82537,396.029912 384.553846,396.230769 L380.538462,399.107692 C380.264924,399.308437 380.147771,399.659897 380.246154,399.984615 L381.784615,404.6 C381.885435,404.920849 381.77056,405.270269 381.499021,405.468701 C381.227482,405.667133 380.859679,405.67044 380.584615,405.476923 L376.646154,402.615385 C376.371007,402.415245 375.998224,402.415245 375.723077,402.615385 L371.784615,405.476923 C371.509552,405.67044 371.141749,405.667133 370.87021,405.468701 C370.598671,405.270269 370.483796,404.920849 370.584615,404.6 L372.123077,399.984615 C372.221459,399.659897 372.104306,399.308437 371.830769,399.107692 L367.892308,396.246154 C367.620783,396.045297 367.50826,395.693222 367.612967,395.372121 C367.717673,395.051021 368.016112,394.832955 368.353846,394.830769 L373.215385,394.830769 C373.555599,394.829835 373.858008,394.61383 373.969231,394.292308 L375.507692,389.676923 C375.620538,389.382038 375.902123,389.186056 376.217845,389.182617 C376.533567,389.179267 376.819301,389.369148 376.938462,389.661538 Z" id="Path" fill="#FBBE42"></path><path d="M403.938462,389.661538 L405.476923,394.276923 C405.578216,394.599034 405.877729,394.817429 406.215385,394.815385 L411.092308,394.815385 C411.427244,394.823983 411.719764,395.044312 411.820491,395.363859 C411.921218,395.683405 411.807923,396.031655 411.538462,396.230769 L407.615385,399.092308 C407.337831,399.290104 407.219712,399.644461 407.323077,399.969231 L408.861538,404.584615 C408.971009,404.910467 408.855627,405.269635 408.576864,405.470768 C408.298101,405.671901 407.920873,405.66816 407.646154,405.461538 L403.615385,402.630769 C403.340238,402.430629 402.967455,402.430629 402.692308,402.630769 L398.753846,405.492308 C398.479127,405.69893 398.101899,405.702671 397.823136,405.501538 C397.544373,405.300405 397.428991,404.941237 397.538462,404.615385 L399.076923,400 C399.188734,399.678617 399.076105,399.32196 398.8,399.123077 L394.861538,396.261538 C394.590014,396.060682 394.477491,395.708606 394.582197,395.387506 C394.686904,395.066406 394.985343,394.84834 395.323077,394.846154 L400.184615,394.846154 C400.522271,394.848198 400.821784,394.629803 400.923077,394.307692 L402.461538,389.692308 C402.566775,389.378186 402.857962,389.164008 403.189171,389.157107 C403.520379,389.150207 403.820234,389.352073 403.938462,389.661538 Z" id="Path" fill="#B1D7DD"></path><path d="M403.061538,389.153846 C402.777826,389.195171 402.54064,389.390849 402.446154,389.661538 L400.907692,394.276923 C400.8064,394.599034 400.506887,394.817429 400.169231,394.815385 L395.307692,394.815385 C394.969959,394.81757 394.671519,395.035636 394.566813,395.356737 C394.462106,395.677837 394.57463,396.029912 394.846154,396.230769 L398.784615,399.092308 C399.060721,399.291191 399.173349,399.647848 399.061538,399.969231 L397.523077,404.584615 C397.413606,404.910467 397.528988,405.269635 397.807751,405.470768 C398.086515,405.671901 398.463742,405.66816 398.738462,405.461538 L402.676923,402.6 C402.772341,402.534426 402.884321,402.497099 403,402.492308 L403.061538,389.153846 Z" id="Path" fill="#FBBE42"></path><path d="M430.938462,389.661538 L432.476923,394.276923 C432.588146,394.598445 432.890555,394.814451 433.230769,394.815385 L438.092308,394.815385 C438.430041,394.81757 438.728481,395.035636 438.833187,395.356737 C438.937894,395.677837 438.82537,396.029912 438.553846,396.230769 L434.615385,399.092308 C434.339279,399.291191 434.226651,399.647848 434.338462,399.969231 L435.876923,404.584615 C435.977743,404.905464 435.862867,405.254884 435.591329,405.453316 C435.31979,405.651748 434.951986,405.655056 434.676923,405.461538 L430.738462,402.6 C430.463315,402.39986 430.090531,402.39986 429.815385,402.6 L425.876923,405.461538 C425.60186,405.655056 425.234056,405.651748 424.962517,405.453316 C424.690979,405.254884 424.576103,404.905464 424.676923,404.584615 L426.215385,399.969231 C426.31875,399.644461 426.200631,399.290104 425.923077,399.092308 L421.984615,396.230769 C421.713091,396.029912 421.600568,395.677837 421.705274,395.356737 C421.809981,395.035636 422.10842,394.81757 422.446154,394.815385 L427.323077,394.815385 C427.660733,394.817429 427.960246,394.599034 428.061538,394.276923 L429.6,389.661538 C429.742587,389.428557 429.99608,389.286498 430.269231,389.286498 C430.542382,389.286498 430.795875,389.428557 430.938462,389.661538 Z" id="Path" fill="#B1D7DD"></path><path d="M457.923077,389.661538 L459.461538,394.276923 C459.568735,394.601433 459.87365,394.819229 460.215385,394.815385 L465.076923,394.815385 C465.414657,394.81757 465.713096,395.035636 465.817803,395.356737 C465.922509,395.677837 465.809986,396.029912 465.538462,396.230769 L461.6,399.092308 C461.326463,399.293053 461.20931,399.644512 461.307692,399.969231 L462.846154,404.584615 C462.946974,404.905464 462.832098,405.254884 462.560559,405.453316 C462.289021,405.651748 461.921217,405.655056 461.646154,405.461538 L457.707692,402.6 C457.432545,402.39986 457.059762,402.39986 456.784615,402.6 L452.846154,405.492308 C452.571091,405.685825 452.203287,405.682518 451.931748,405.484085 C451.660209,405.285653 451.545334,404.936234 451.646154,404.615385 L453.184615,400 C453.296426,399.678617 453.183798,399.32196 452.907692,399.123077 L448.969231,396.261538 C448.697707,396.060682 448.585183,395.708606 448.68989,395.387506 C448.794596,395.066406 449.093035,394.84834 449.430769,394.846154 L454.292308,394.846154 C454.632522,394.84522 454.934931,394.629214 455.046154,394.307692 L456.584615,389.692308 C456.721769,389.455947 456.972021,389.307973 457.24522,389.301693 C457.51842,389.295412 457.775207,389.43173 457.923077,389.661538 Z" id="Path" fill="#B1D7DD"></path><rect id="Rectangle" fill="#B1D7DD" x="340.553846" y="413.246154" width="78.4923077" height="2.18461538"></rect><rect id="Rectangle" fill="#FF5A5A" x="340.553846" y="377.353846" width="78.4923077" height="4.10769231"></rect><rect id="Rectangle" fill="#B1D7DD" x="340.553846" y="421.538462" width="78.4923077" height="2.18461538"></rect><rect id="Rectangle" fill="#B1D7DD" x="340.553846" y="429.246154" width="35.8769231" height="2.18461538"></rect><circle id="Oval" fill="#7BC7FF" transform="translate(292.056388, 402.797266) rotate(-58.520000) translate(-292.056388, -402.797266) " cx="292.056388" cy="402.797266" r="31.3384615"></circle><g id="Group" transform="translate(260.538462, 380.000000)"><path d="M18.8923077,16.1076923 C18.8923077,16.1076923 17.1076923,9 19.8769231,5.87692308 C22.6461538,2.75384615 28.1384615,-0.569230769 32.6153846,1.13846154 C34.671777,-0.0820307708 37.1965592,-0.214308657 39.3692308,0.784615385 C42.5846154,2.56923077 47.2307692,4.12307692 47.7230769,1.98461538 C47.7230769,1.98461538 47.9846154,10.1692308 44.3230769,11.4615385 L42.7846154,17.7538462 L19.3384615,17.7538462 L18.8923077,16.1076923 Z" id="Path" fill="#0A4D7A"></path><path d="M56.1692308,43.9076923 C52.2,37.0769231 35.3846154,33.2923077 35.3846154,33.2923077 L30.9692308,35 L26.5538462,33.2923077 C26.5538462,33.2923077 9.73846154,37.0769231 5.76923077,43.9076923 L0.892307692,80.7076923 L8.58461538,80.5846154 L13.1076923,49.8153846 C13.1076923,49.8153846 15.9692308,59.7384615 15.8153846,65.5384615 C15.4664091,70.701353 14.8088238,75.8387383 13.8461538,80.9230769 L48,80.9230769 C47.03733,75.8387383 46.3797447,70.701353 46.0307692,65.5384615 C45.8769231,59.7384615 48.7384615,49.8153846 48.7384615,49.8153846 L53.2615385,80.5846154 L60.9538462,80.7076923 L56.1692308,43.9076923 Z" id="Path" fill="#0A4D7A"></path><path d="M36.1692308,26.9230769 L36.1692308,33.2923077 C36.1692308,33.2923077 35.2769231,38.2769231 31.0769231,39.1230769 C28.426981,38.291044 26.4738557,36.0342315 26.0307692,33.2923077 L26.0307692,26.9230769 L36.1692308,26.9230769 Z" id="Path" fill="#FFA683"></path><path d="M36.1692308,26.0153846 L36.1692308,30.0769231 C33.0010898,31.7671797 29.1989102,31.7671797 26.0307692,30.0769231 L26.0307692,26.0153846 L36.1692308,26.0153846 Z" id="Path" fill="#E57C5C"></path><path d="M41.3846154,13.1846154 C38.4354551,12.9729537 35.6809208,11.63425 33.6923077,9.44615385 C30.8461538,11.9076923 20.8923077,13.1846154 20.8923077,13.1846154 L20.8923077,17.1076923 C21.0292581,20.4678906 22.1588613,23.7121536 24.1384615,26.4307692 C25.789109,28.6629457 28.4007299,29.9798213 31.1769231,29.9798213 C33.9531163,29.9798213 36.5647371,28.6629457 38.2153846,26.4307692 C40.1949849,23.7121536 41.324588,20.4678906 41.4615385,17.1076923 L41.3846154,13.1846154 Z" id="Path" fill="#FFA683"></path><path d="M23.4923077,17.5846154 C23.4923077,18.7233322 22.8063613,19.7499236 21.7543241,20.1856916 C20.702287,20.6214597 19.4913399,20.3805873 18.6861455,19.5753929 C17.8809512,18.7701986 17.6400788,17.5592515 18.0758469,16.5072143 C18.5116149,15.4551772 19.5382063,14.7692308 20.6769231,14.7692308 C22.2318171,14.7692308 23.4923077,16.0297214 23.4923077,17.5846154 L23.4923077,17.5846154 Z" id="Path" fill="#FFA683"></path><path d="M44.2461538,17.5846154 C44.2461538,18.7233322 43.5602074,19.7499236 42.5081703,20.1856916 C41.4561332,20.6214597 40.245186,20.3805873 39.4399917,19.5753929 C38.6347973,18.7701986 38.393925,17.5592515 38.829693,16.5072143 C39.2654611,15.4551772 40.2920524,14.7692308 41.4307692,14.7692308 C42.9856632,14.7692308 44.2461538,16.0297214 44.2461538,17.5846154 L44.2461538,17.5846154 Z" id="Path" fill="#FFA683"></path></g><circle id="Oval" fill="#FBBE42" cx="433.830769" cy="46.0769231" r="45.9230769"></circle><path d="M433.830769,0.153846154 L433,0.153846154 C449.655851,10.0162126 457.668971,29.7917912 452.576481,48.4666458 C447.483992,67.1415004 430.541316,80.1118256 411.184615,80.1538462 C408.11697,80.1557943 405.058127,79.8256662 402.061538,79.1692308 C416.980739,93.4686655 439.61349,96.0416824 457.361762,85.4560674 C475.110033,74.8704524 483.601665,53.7338957 478.109975,33.8116036 C472.618285,13.8893116 454.496111,0.0889976865 433.830769,0.092307097 L433.830769,0.153846154 Z" id="Path" fill="#F9A643"></path><path d="M110.646154,191.384615 C120.261538,191.384615 120.769231,177.061538 111.169231,176.461538 L110.907692,176.461538 L110.907692,176.276923 C110.94679,169.715335 107.500112,163.626085 101.85431,160.282302 C96.2085091,156.938518 89.2121255,156.842758 83.4769231,160.030769 C79.3131888,152.253703 70.3921075,148.306848 61.8365373,150.456653 C53.2809672,152.606458 47.2852212,160.301547 47.2923077,169.123077 C47.2616273,169.686762 47.2616273,170.251699 47.2923077,170.815385 C37.9416031,168.118811 27.9195617,171.768277 22.4923077,179.846154 C20.9863648,182.142111 20.8630893,185.079649 22.1713737,187.493707 C23.4796582,189.907765 26.0080828,191.40823 28.7538462,191.400034 L110.646154,191.384615 Z" id="Path" fill="#7BC7FF"></path><path d="M406.092308,74.3846154 C418.692308,74.3846154 419.353846,55.6307692 406.784615,54.8153846 L406.430769,54.8153846 L406.430769,54.5846154 C406.430644,46.0090421 401.906222,38.0697331 394.528319,33.6985779 C387.150415,29.3274228 378.013722,29.1729892 370.492308,33.2923077 C365.036278,23.1034163 353.348573,17.9321875 342.138903,20.7473351 C330.929233,23.5624826 323.071594,33.6422436 323.076923,45.2 C323.076923,45.9487179 323.107692,46.6871795 323.169231,47.4153846 C310.915638,43.9025898 297.794294,48.6864131 290.676923,59.2615385 C288.698818,62.2682775 288.534133,66.1191229 290.248315,69.2837655 C291.962496,72.4484081 295.277871,74.4142215 298.876923,74.4000766 L406.092308,74.3846154 Z" id="Path" fill="#7BC7FF"></path><path d="M557.723077,118.6 C546.138462,118.6 545.538462,101.369231 557.092308,100.630769 L557.415385,100.630769 L557.415385,100.415385 C557.415598,92.5370811 561.571374,85.2431031 568.348601,81.2260326 C575.125829,77.2089622 583.519382,77.0645682 590.430769,80.8461538 C595.452546,71.4882508 606.193619,66.7427152 616.493508,69.3313213 C626.793396,71.9199273 634.014578,81.1798027 634.015385,91.8 C634.015385,92.4871795 633.984615,93.1641026 633.923077,93.8307692 C645.18576,90.6020588 657.245832,95.001096 663.784615,104.723077 C665.561687,107.484955 665.690217,110.996383 664.119818,113.88079 C662.549419,116.765196 659.530345,118.56293 656.246154,118.569231 L557.723077,118.6 Z" id="Path" fill="#7BC7FF"></path><path d="M598.507692,441.230769 L600.784615,440.476923 C601.123077,436.538462 599.430769,429.907692 590.492308,419.676923 C573.953846,400.738462 559.723077,373.769231 563.369231,363.246154 C563.369231,363.246154 547.184615,387.584615 558.107692,403.661538 C568.338462,418.738462 595.569231,421.984615 598.507692,441.230769 Z" id="Path" fill="#379CF7"></path><path d="M599.446154,440.923077 L600.784615,440.476923 C601.123077,436.538462 599.430769,429.907692 590.492308,419.676923 C573.953846,400.738462 559.723077,373.769231 563.369231,363.246154 C563.369231,363.246154 554.8,385.615385 565.907692,400.6 C577.015385,415.584615 596.430769,418.461538 599.446154,440.923077 Z" id="Path" fill="#006CBC"></path><path d="M605.153846,425.046154 C604.45737,428.292735 603.426218,431.458371 602.076923,434.492308 L603.138462,434.661538 C607.984615,428.138462 615.938462,415.2 617.692308,398.8 C620.276923,374.830769 623.753846,344.815385 623.753846,344.815385 C623.753846,344.815385 599.338462,364.953846 604.815385,392.938462 C607.507692,406.892308 606.8,417.461538 605.153846,425.046154 Z" id="Path" fill="#379CF7"></path><path d="M613.723077,381.492308 C612.384615,401.492308 608.615385,423.492308 603.723077,432.261538 C604.430769,431.707692 605.184615,431.138462 605.969231,430.553846 C612.269662,421.021427 616.272075,410.156983 617.661538,398.815385 C620.246154,374.846154 623.723077,344.830769 623.723077,344.830769 C623.723077,344.830769 615.461538,355.446154 613.723077,381.492308 Z" id="Path" fill="#006CBC"></path><path d="M609.507692,434.384615 C607.840021,436.31425 605.973262,438.062403 603.938462,439.6 L604.584615,440.107692 C613.778422,435.957633 621.732062,429.48337 627.661538,421.323077 C638.276923,406.138462 651.723077,387.215385 651.723077,387.215385 C651.723077,387.215385 627.815385,391.830769 621.153846,412.630769 C618.809295,420.60587 614.844607,428.011508 609.507692,434.384615 Z" id="Path" fill="#379CF7"></path><path d="M631.415385,408.230769 C623.107692,421.215385 612.430769,434.646154 605.892308,438.723077 L608.030769,438.4 C615.808768,434.311897 622.529395,428.47085 627.661538,421.338462 C638.276923,406.153846 651.723077,387.230769 651.723077,387.230769 C651.723077,387.230769 642.215385,391.307692 631.415385,408.230769 Z" id="Path" fill="#006CBC"></path><path d="M600.353846,433.615385 C601.892308,437.892308 602.953846,440.815385 603.6,442.846154 L604.461538,442.646154 C603.061538,435.153846 600.630769,422.2 598.307692,413.707692 C594.938462,401.184615 597.553846,395.107692 594.846154,373.323077 C592.138462,351.538462 579.215385,322.769231 579.215385,322.769231 C579.215385,322.769231 570.876923,353.123077 582.8,382.092308 C594.723077,411.061538 593.753846,414.8 600.353846,433.615385 Z" id="Path" fill="#379CF7"></path><path d="M603.615385,442.830769 L603.784615,442.830769 L603.876923,439.753846 C602.446154,432.061538 600.323077,421.2 598.307692,413.723077 C594.938462,401.2 597.553846,395.123077 594.846154,373.338462 C592.138462,351.553846 579.215385,322.784615 579.215385,322.784615 C579.215385,322.784615 583.276923,366.046154 589.2,384.969231 C594.707692,402.446154 602.507692,437.661538 603.615385,442.830769 Z" id="Path" fill="#006CBC"></path><path d="M579,438.461538 L584.215385,469.4 C584.709649,472.286133 587.210314,474.397083 590.138462,474.4 L620.369231,474.4 C623.293879,474.395911 625.789484,472.283745 626.276923,469.4 L631.507692,438.461538 C631.723309,437.131509 631.346955,435.773669 630.477413,434.744414 C629.60787,433.715159 628.331975,433.117276 626.984615,433.107692 L583.476923,433.107692 C582.13767,433.130588 580.874423,433.734166 580.015187,434.761705 C579.155952,435.789244 578.785493,437.139378 579,438.461538 Z" id="Path" fill="#FFFFFF"></path><path d="M631.446154,436.892308 L631.446154,436.892308 C631.389643,436.603446 631.307259,436.320253 631.2,436.046154 L631.2,436.046154 C631.092351,435.797557 630.969026,435.556045 630.830769,435.323077 L630.738462,435.2 C630.608532,435.000295 630.46458,434.810073 630.307692,434.630769 L630.107692,434.446154 C629.961056,434.304722 629.806991,434.1712 629.646154,434.046154 L629.292308,433.830769 C629.157607,433.734057 629.013246,433.651565 628.861538,433.584615 L628.307692,433.4 L627.953846,433.276923 C627.629936,433.209019 627.300161,433.17295 626.969231,433.169231 L583.476923,433.169231 C582.236684,433.169231 581.048535,433.667896 580.180279,434.553516 C579.312024,435.439137 578.836734,436.636933 578.861538,437.876923 L617.692308,437.876923 C617.707403,438.092043 617.707403,438.307957 617.692308,438.523077 L612.461538,469.461538 C611.97998,472.34863 609.480823,474.463802 606.553846,474.46154 L620.323077,474.46154 C623.247725,474.45745 625.74333,472.345284 626.230769,469.461538 L631.461538,438.523077 C631.556648,437.983159 631.551432,437.430335 631.446154,436.892308 L631.446154,436.892308 Z" id="Path" fill="#CAEDFF"></path><path d="M179.723077,212.84614 L111.461538,212.84614 C109.108648,212.842069 106.850727,213.773889 105.185537,215.436193 C103.520347,217.098497 102.584615,219.354798 102.584615,221.707692 L102.584615,275.338462 L119.953846,259.6 C121.366901,258.323299 123.203306,257.616146 125.107692,257.615385 L179.723077,257.615385 C183.091674,257.573274 185.8,254.830399 185.8,251.461538 L185.8,218.846154 C185.717501,215.53737 183.032643,212.886498 179.723077,212.84614 L179.723077,212.84614 Z" id="Path" fill="#0A4D7A"></path><path d="M156.338462,226.523077 C154.918474,225.079815 152.978536,224.267014 150.953846,224.267014 C148.929156,224.267014 146.989218,225.079815 145.569231,226.523077 L144.569231,227.523077 L143.569231,226.523077 C140.59539,223.549236 135.773841,223.549236 132.8,226.523077 C129.826159,229.496918 129.826159,234.318467 132.8,237.292308 L133.8,238.292308 L144.569231,248.984615 L155.338462,238.292308 L156.338462,237.292308 C157.781723,235.87232 158.594524,233.932382 158.594524,231.907692 C158.594524,229.883003 157.781723,227.943064 156.338462,226.523077 L156.338462,226.523077 Z" id="Path" fill="#FF5A5A"></path><path d="M585.6,140.384615 L516.938462,140.384615 C512.016391,140.393102 508.030769,144.385615 508.030769,149.307692 L508.030769,203.246154 L525.492308,187.430769 C526.91092,186.141349 528.759879,185.428101 530.676923,185.430769 L585.6,185.430769 C588.998675,185.430769 591.753846,182.675598 591.753846,179.276923 L591.753846,146.507692 C591.736913,143.121039 588.986695,140.384615 585.6,140.384615 L585.6,140.384615 Z" id="Path" fill="#0A4D7A"></path><path d="M569.369231,164.876923 C570.615235,164.738639 571.5414,163.659171 571.488704,162.406624 C571.436008,161.154077 570.422447,160.156216 569.169231,160.123077 L564.553846,160.123077 C564.313079,160.107283 564.071536,160.107283 563.830769,160.123077 C562.622997,160.233966 561.405579,160.1718 560.215385,159.938462 C558.2,159.492308 560.584615,157.030769 559.323077,152.507692 C558.061538,147.984615 553.646154,148.246154 553.861538,150.353846 C554.076923,152.461538 554.307692,157.507692 553.138462,159.092308 C551.437562,161.278872 548.934593,162.696483 546.184615,163.030769 L546.092308,175.015385 L550.8,175.015385 C552.604702,176.685708 554.895257,177.736668 557.338462,178.015439 L557.338462,178.015439 L566.307692,178.015439 C566.885669,178.019484 567.441382,177.792751 567.851525,177.385497 C568.261668,176.978242 568.492322,176.424145 568.492308,175.846154 C568.491723,175.183138 568.192157,174.555744 567.676923,174.138462 C568.786552,174.031682 569.674137,173.170386 569.81422,172.064468 C569.954303,170.95855 569.309499,169.903151 568.261538,169.523077 L568.6,169.523077 C569.233696,169.527205 569.842634,169.277296 570.290734,168.829196 C570.738834,168.381095 570.988744,167.772157 570.984615,167.138462 L570.984615,167.138462 C570.981814,166.117817 570.333796,165.210593 569.369231,164.876923 Z" id="Path" fill="#379CF7"></path><polygon id="Path" fill="#379CF7" points="532.892308 177.215385 540.953846 177.230769 541.061538 159.723077 532.984615 159.707692"></polygon><path d="M428.815385,336.184615 C423.453734,326.798535 425.615153,314.916714 433.938779,308.020119 C442.262406,301.123523 454.338921,301.208412 462.564774,308.221338 C470.790627,315.234264 472.7848,327.145296 467.291732,336.455075 C461.798663,345.764855 450.408354,349.778613 440.292308,345.969231 C438.88791,345.43492 437.346086,345.380821 435.907692,345.815385 L427.246154,348.430769 L429.369231,341.430769 C429.916251,339.680527 429.715825,337.782046 428.815385,336.184615 Z" id="Path" fill="#0A4D7A"></path><path d="M447.646154,313.153846 L445.369231,320.2 C445.228744,320.590786 444.861358,320.85408 444.446154,320.861538 L437.046154,320.861538 C436.623778,320.849402 436.243755,321.116604 436.112267,321.518176 C435.980779,321.919748 436.129167,322.35997 436.476923,322.6 L442.461538,326.953846 C442.803134,327.1962 442.946668,327.63304 442.815385,328.030769 L440.538462,335.076923 C440.382428,335.49125 440.526985,335.958644 440.889687,336.212535 C441.252388,336.466426 441.74103,336.442271 442.076923,336.153846 L448.061538,331.8 C448.401044,331.553645 448.860495,331.553645 449.2,331.8 L455.184615,336.153846 C455.520508,336.442271 456.00915,336.466426 456.371852,336.212535 C456.734553,335.958644 456.87911,335.49125 456.723077,335.076923 L454.384615,328.030769 C454.24479,327.636481 454.382832,327.197255 454.723077,326.953846 L460.723077,322.6 C461.070833,322.35997 461.219221,321.919748 461.087733,321.518176 C460.956245,321.116604 460.576222,320.849402 460.153846,320.861538 L452.692308,320.861538 C452.27412,320.863256 451.901986,320.59656 451.769231,320.2 L449.476923,313.153846 C449.357869,312.747398 448.985064,312.46813 448.561538,312.46813 C448.138013,312.46813 447.765208,312.747398 447.646154,313.153846 L447.646154,313.153846 Z" id="Path" fill="#FBBE42"></path></g></g></g></g></g></svg> 