<?xml version="1.0" encoding="UTF-8"?> <svg xmlns="http://www.w3.org/2000/svg" xmlns:xlink="http://www.w3.org/1999/xlink" width="242px" height="28px" viewBox="0 0 242 28"><!-- Generator: Sketch 60.1 (88133) - https://sketch.com --><title>deepdivereview</title><desc>Created with Sketch.</desc><g id="Page-1" stroke="none" stroke-width="1" fill="none" fill-rule="evenodd"><g id="Landing" transform="translate(-136.000000, -84.000000)" fill="#379CF7" fill-rule="nonzero"><path d="M143.008,106.224 C144.8,106.224 146.284,105.486667 147.46,104.012 L147.46,104.012 L147.46,106 L151.66,106 L151.66,85.224 L147.46,85.224 L147.46,92.616 C146.302667,91.328 144.809333,90.684 142.98,90.684 C141.150667,90.684 139.554667,91.398 138.192,92.826 C136.829333,94.254 136.148,96.088 136.148,98.328 C136.148,100.568 136.848,102.444 138.248,103.956 C139.648,105.468 141.234667,106.224 143.008,106.224 Z M144.016,102.64 C143.045333,102.64 142.196,102.252667 141.468,101.478 C140.74,100.703333 140.376,99.7093333 140.376,98.496 C140.376,97.2826667 140.730667,96.2653333 141.44,95.444 C142.149333,94.6226667 142.998667,94.212 143.988,94.212 C144.977333,94.212 145.812667,94.618 146.494,95.43 C147.175333,96.242 147.516,97.2593333 147.516,98.482 C147.516,99.7046667 147.175333,100.703333 146.494,101.478 C145.812667,102.252667 144.986667,102.64 144.016,102.64 Z M162.706,106.224 C164.992667,106.224 166.985333,105.421333 168.684,103.816 L168.684,103.816 L166.332,101.268 C165.38,102.257333 164.166667,102.752 162.692,102.752 C161.777333,102.752 160.956,102.490667 160.228,101.968 C159.5,101.445333 159.070667,100.773333 158.94,99.952 L158.94,99.952 L169.916,99.952 L169.916,97.712 C169.916,95.528 169.192667,93.8106667 167.746,92.56 C166.299333,91.3093333 164.54,90.684 162.468,90.684 C160.396,90.684 158.599333,91.384 157.078,92.784 C155.556667,94.184 154.796,96.0693333 154.796,98.44 C154.796,100.810667 155.542667,102.700667 157.036,104.11 C158.529333,105.519333 160.419333,106.224 162.706,106.224 Z M165.66,96.956 L159.052,96.956 C159.164,96.0973333 159.565333,95.416 160.256,94.912 C160.946667,94.408 161.707333,94.156 162.538,94.156 C163.368667,94.156 164.073333,94.3986667 164.652,94.884 C165.230667,95.3693333 165.566667,96.06 165.66,96.956 L165.66,96.956 Z M180.01,106.224 C182.296667,106.224 184.289333,105.421333 185.988,103.816 L185.988,103.816 L183.636,101.268 C182.684,102.257333 181.470667,102.752 179.996,102.752 C179.081333,102.752 178.26,102.490667 177.532,101.968 C176.804,101.445333 176.374667,100.773333 176.244,99.952 L176.244,99.952 L187.22,99.952 L187.22,97.712 C187.22,95.528 186.496667,93.8106667 185.05,92.56 C183.603333,91.3093333 181.844,90.684 179.772,90.684 C177.7,90.684 175.903333,91.384 174.382,92.784 C172.860667,94.184 172.1,96.0693333 172.1,98.44 C172.1,100.810667 172.846667,102.700667 174.34,104.11 C175.833333,105.519333 177.723333,106.224 180.01,106.224 Z M182.964,96.956 L176.356,96.956 C176.468,96.0973333 176.869333,95.416 177.56,94.912 C178.250667,94.408 179.011333,94.156 179.842,94.156 C180.672667,94.156 181.377333,94.3986667 181.956,94.884 C182.534667,95.3693333 182.870667,96.06 182.964,96.956 L182.964,96.956 Z M194.444,111.432 L194.444,104.012 C195.564,105.486667 197.043333,106.224 198.882,106.224 C200.720667,106.224 202.326,105.477333 203.698,103.984 C205.07,102.490667 205.756,100.633333 205.756,98.412 C205.756,96.1906667 205.07,94.3473333 203.698,92.882 C202.326,91.4166667 200.762667,90.684 199.008,90.684 C197.253333,90.684 195.732,91.328 194.444,92.616 L194.444,92.616 L194.444,90.936 L190.244,90.936 L190.244,111.432 L194.444,111.432 Z M197.888,102.64 C196.917333,102.64 196.091333,102.252667 195.41,101.478 C194.728667,100.703333 194.388,99.7093333 194.388,98.496 C194.388,97.264 194.728667,96.242 195.41,95.43 C196.091333,94.618 196.926667,94.212 197.916,94.212 C198.905333,94.212 199.754667,94.6226667 200.464,95.444 C201.173333,96.2653333 201.528,97.2826667 201.528,98.496 C201.528,99.7093333 201.164,100.703333 200.436,101.478 C199.708,102.252667 198.858667,102.64 197.888,102.64 Z M222.304,106.224 C224.096,106.224 225.58,105.486667 226.756,104.012 L226.756,104.012 L226.756,106 L230.956,106 L230.956,85.224 L226.756,85.224 L226.756,92.616 C225.598667,91.328 224.105333,90.684 222.276,90.684 C220.446667,90.684 218.850667,91.398 217.488,92.826 C216.125333,94.254 215.444,96.088 215.444,98.328 C215.444,100.568 216.144,102.444 217.544,103.956 C218.944,105.468 220.530667,106.224 222.304,106.224 Z M223.312,102.64 C222.341333,102.64 221.492,102.252667 220.764,101.478 C220.036,100.703333 219.672,99.7093333 219.672,98.496 C219.672,97.2826667 220.026667,96.2653333 220.736,95.444 C221.445333,94.6226667 222.294667,94.212 223.284,94.212 C224.273333,94.212 225.108667,94.618 225.79,95.43 C226.471333,96.242 226.812,97.2593333 226.812,98.482 C226.812,99.7046667 226.471333,100.703333 225.79,101.478 C225.108667,102.252667 224.282667,102.64 223.312,102.64 Z M237.032,89.732 C237.722667,89.732 238.306,89.494 238.782,89.018 C239.258,88.542 239.496,87.9586667 239.496,87.268 C239.496,86.5773333 239.258,85.994 238.782,85.518 C238.306,85.042 237.722667,84.804 237.032,84.804 C236.341333,84.804 235.758,85.042 235.282,85.518 C234.806,85.994 234.568,86.5773333 234.568,87.268 C234.568,87.9586667 234.801333,88.5466667 235.268,89.032 C235.753333,89.4986667 236.341333,89.732 237.032,89.732 Z M239.132,106 L239.132,90.936 L234.932,90.936 L234.932,106 L239.132,106 Z M251.48,106 L257.444,90.908 L253.076,90.908 L249.324,100.4 L245.572,90.908 L241.204,90.908 L247.168,106 L251.48,106 Z M266.586,106.224 C268.872667,106.224 270.865333,105.421333 272.564,103.816 L272.564,103.816 L270.212,101.268 C269.26,102.257333 268.046667,102.752 266.572,102.752 C265.657333,102.752 264.836,102.490667 264.108,101.968 C263.38,101.445333 262.950667,100.773333 262.82,99.952 L262.82,99.952 L273.796,99.952 L273.796,97.712 C273.796,95.528 273.072667,93.8106667 271.626,92.56 C270.179333,91.3093333 268.42,90.684 266.348,90.684 C264.276,90.684 262.479333,91.384 260.958,92.784 C259.436667,94.184 258.676,96.0693333 258.676,98.44 C258.676,100.810667 259.422667,102.700667 260.916,104.11 C262.409333,105.519333 264.299333,106.224 266.586,106.224 Z M269.54,96.956 L262.932,96.956 C263.044,96.0973333 263.445333,95.416 264.136,94.912 C264.826667,94.408 265.587333,94.156 266.418,94.156 C267.248667,94.156 267.953333,94.3986667 268.532,94.884 C269.110667,95.3693333 269.446667,96.06 269.54,96.956 L269.54,96.956 Z M288.412,106 L288.412,99.476 C288.412,98.02 288.72,96.8486667 289.336,95.962 C289.952,95.0753333 290.885333,94.632 292.136,94.632 L292.136,94.632 L292.948,94.632 L292.92,90.684 C292.08,90.7026667 291.254,90.9266667 290.442,91.356 C289.63,91.7853333 288.953333,92.308 288.412,92.924 L288.412,92.924 L288.412,90.936 L284.212,90.936 L284.212,106 L288.412,106 Z M302.79,106.224 C305.076667,106.224 307.069333,105.421333 308.768,103.816 L308.768,103.816 L306.416,101.268 C305.464,102.257333 304.250667,102.752 302.776,102.752 C301.861333,102.752 301.04,102.490667 300.312,101.968 C299.584,101.445333 299.154667,100.773333 299.024,99.952 L299.024,99.952 L310,99.952 L310,97.712 C310,95.528 309.276667,93.8106667 307.83,92.56 C306.383333,91.3093333 304.624,90.684 302.552,90.684 C300.48,90.684 298.683333,91.384 297.162,92.784 C295.640667,94.184 294.88,96.0693333 294.88,98.44 C294.88,100.810667 295.626667,102.700667 297.12,104.11 C298.613333,105.519333 300.503333,106.224 302.79,106.224 Z M305.744,96.956 L299.136,96.956 C299.248,96.0973333 299.649333,95.416 300.34,94.912 C301.030667,94.408 301.791333,94.156 302.622,94.156 C303.452667,94.156 304.157333,94.3986667 304.736,94.884 C305.314667,95.3693333 305.650667,96.06 305.744,96.956 L305.744,96.956 Z M321.396,106 L327.36,90.908 L322.992,90.908 L319.24,100.4 L315.488,90.908 L311.12,90.908 L317.084,106 L321.396,106 Z M331.532,89.732 C332.222667,89.732 332.806,89.494 333.282,89.018 C333.758,88.542 333.996,87.9586667 333.996,87.268 C333.996,86.5773333 333.758,85.994 333.282,85.518 C332.806,85.042 332.222667,84.804 331.532,84.804 C330.841333,84.804 330.258,85.042 329.782,85.518 C329.306,85.994 329.068,86.5773333 329.068,87.268 C329.068,87.9586667 329.301333,88.5466667 329.768,89.032 C330.253333,89.4986667 330.841333,89.732 331.532,89.732 Z M333.632,106 L333.632,90.936 L329.432,90.936 L329.432,106 L333.632,106 Z M344.678,106.224 C346.964667,106.224 348.957333,105.421333 350.656,103.816 L350.656,103.816 L348.304,101.268 C347.352,102.257333 346.138667,102.752 344.664,102.752 C343.749333,102.752 342.928,102.490667 342.2,101.968 C341.472,101.445333 341.042667,100.773333 340.912,99.952 L340.912,99.952 L351.888,99.952 L351.888,97.712 C351.888,95.528 351.164667,93.8106667 349.718,92.56 C348.271333,91.3093333 346.512,90.684 344.44,90.684 C342.368,90.684 340.571333,91.384 339.05,92.784 C337.528667,94.184 336.768,96.0693333 336.768,98.44 C336.768,100.810667 337.514667,102.700667 339.008,104.11 C340.501333,105.519333 342.391333,106.224 344.678,106.224 Z M347.632,96.956 L341.024,96.956 C341.136,96.0973333 341.537333,95.416 342.228,94.912 C342.918667,94.408 343.679333,94.156 344.51,94.156 C345.340667,94.156 346.045333,94.3986667 346.624,94.884 C347.202667,95.3693333 347.538667,96.06 347.632,96.956 L347.632,96.956 Z M362.752,106 L365.552,97.796 L368.324,106 L372.692,106 L377.816,90.936 L373.448,90.936 L370.508,100.036 L367.568,90.936 L363.508,90.936 L360.568,100.036 L357.628,90.936 L353.288,90.936 L358.412,106 L362.752,106 Z" id="deepdivereview"></path></g></g></svg> 